<svg version="1.1" viewBox="0.0 0.0 975.0 498.0" fill="none" stroke="none" stroke-linecap="square" stroke-miterlimit="10" width="975" height="498" xmlns:xlink="http://www.w3.org/1999/xlink" xmlns="http://www.w3.org/2000/svg"><path fill="#ffffff" fill-opacity="0.0" d="M0 0L975.0 0L975.0 498.0L0 498.0L0 0Z" fill-rule="nonzero"/><path stroke="#f3f3f3" stroke-width="1.0" stroke-linecap="butt" d="M51.5 453.5L950.5 453.5" fill-rule="nonzero"/><path stroke="#f3f3f3" stroke-width="1.0" stroke-linecap="butt" d="M51.5 389.5L950.5 389.5" fill-rule="nonzero"/><path stroke="#f3f3f3" stroke-width="1.0" stroke-linecap="butt" d="M51.5 326.5L950.5 326.5" fill-rule="nonzero"/><path stroke="#333333" stroke-width="1.0" stroke-linecap="butt" d="M51.5 262.5L950.5 262.5" fill-rule="nonzero"/><path stroke="#f3f3f3" stroke-width="1.0" stroke-linecap="butt" d="M51.5 199.5L950.5 199.5" fill-rule="nonzero"/><path stroke="#f3f3f3" stroke-width="1.0" stroke-linecap="butt" d="M51.5 135.5L950.5 135.5" fill-rule="nonzero"/><path stroke="#f3f3f3" stroke-width="1.0" stroke-linecap="butt" d="M51.5 72.5L950.5 72.5" fill-rule="nonzero"/><path stroke="#f3f3f3" stroke-width="1.0" stroke-linecap="butt" d="M51.5 431.5L950.5 431.5" fill-rule="nonzero"/><path stroke="#f3f3f3" stroke-width="1.0" stroke-linecap="butt" d="M51.5 410.5L950.5 410.5" fill-rule="nonzero"/><path stroke="#f3f3f3" stroke-width="1.0" stroke-linecap="butt" d="M51.5 368.5L950.5 368.5" fill-rule="nonzero"/><path stroke="#f3f3f3" stroke-width="1.0" stroke-linecap="butt" d="M51.5 347.5L950.5 347.5" fill-rule="nonzero"/><path stroke="#f3f3f3" stroke-width="1.0" stroke-linecap="butt" d="M51.5 305.5L950.5 305.5" fill-rule="nonzero"/><path stroke="#f3f3f3" stroke-width="1.0" stroke-linecap="butt" d="M51.5 283.5L950.5 283.5" fill-rule="nonzero"/><path stroke="#f3f3f3" stroke-width="1.0" stroke-linecap="butt" d="M51.5 241.5L950.5 241.5" fill-rule="nonzero"/><path stroke="#f3f3f3" stroke-width="1.0" stroke-linecap="butt" d="M51.5 220.5L950.5 220.5" fill-rule="nonzero"/><path stroke="#f3f3f3" stroke-width="1.0" stroke-linecap="butt" d="M51.5 178.5L950.5 178.5" fill-rule="nonzero"/><path stroke="#f3f3f3" stroke-width="1.0" stroke-linecap="butt" d="M51.5 157.5L950.5 157.5" fill-rule="nonzero"/><path stroke="#f3f3f3" stroke-width="1.0" stroke-linecap="butt" d="M51.5 114.5L950.5 114.5" fill-rule="nonzero"/><path stroke="#f3f3f3" stroke-width="1.0" stroke-linecap="butt" d="M51.5 93.5L950.5 93.5" fill-rule="nonzero"/><clipPath id="id_0"><path d="M51.9 72.5L950.1 72.5L950.1 453.1L51.9 453.1L51.9 72.5Z" clip-rule="nonzero"/></clipPath><path stroke="#000000" stroke-width="2.0" stroke-linecap="butt" stroke-opacity="0.0" clip-path="url(#id_0)" d="M92.0 263.0L90.0 263.0L90.0 294.0C90.0 294.55228 90.447716 295.0 91.0 295.0L91.0 295.0C91.552284 295.0 92.0 294.55228 92.0 294.0Z" fill-rule="nonzero"/><path fill="#4285f4" clip-path="url(#id_0)" d="M92.0 263.0L90.0 263.0L90.0 294.0C90.0 294.55228 90.447716 295.0 91.0 295.0L91.0 295.0C91.552284 295.0 92.0 294.55228 92.0 294.0Z" fill-rule="nonzero"/><path stroke="#000000" stroke-width="2.0" stroke-linecap="butt" stroke-opacity="0.0" clip-path="url(#id_0)" d="M199.0 263.0L197.0 263.0L197.0 357.0C197.0 357.55228 197.44771 358.0 198.0 358.0L198.0 358.0C198.55229 358.0 199.0 357.55228 199.0 357.0Z" fill-rule="nonzero"/><path fill="#4285f4" clip-path="url(#id_0)" d="M199.0 263.0L197.0 263.0L197.0 357.0C197.0 357.55228 197.44771 358.0 198.0 358.0L198.0 358.0C198.55229 358.0 199.0 357.55228 199.0 357.0Z" fill-rule="nonzero"/><path stroke="#000000" stroke-width="2.0" stroke-linecap="butt" stroke-opacity="0.0" clip-path="url(#id_0)" d="M307.0 263.0L305.0 263.0L305.0 294.0C305.0 294.55228 305.44772 295.0 306.0 295.0L306.0 295.0C306.55228 295.0 307.0 294.55228 307.0 294.0Z" fill-rule="nonzero"/><path fill="#4285f4" clip-path="url(#id_0)" d="M307.0 263.0L305.0 263.0L305.0 294.0C305.0 294.55228 305.44772 295.0 306.0 295.0L306.0 295.0C306.55228 295.0 307.0 294.55228 307.0 294.0Z" fill-rule="nonzero"/><path stroke="#000000" stroke-width="2.0" stroke-linecap="butt" stroke-opacity="0.0" clip-path="url(#id_0)" d="M414.0 263.0L412.0 263.0L412.0 325.0C412.0 325.55228 412.44772 326.0 413.0 326.0L413.0 326.0C413.55228 326.0 414.0 325.55228 414.0 325.0Z" fill-rule="nonzero"/><path fill="#4285f4" clip-path="url(#id_0)" d="M414.0 263.0L412.0 263.0L412.0 325.0C412.0 325.55228 412.44772 326.0 413.0 326.0L413.0 326.0C413.55228 326.0 414.0 325.55228 414.0 325.0Z" fill-rule="nonzero"/><path stroke="#000000" stroke-width="2.0" stroke-linecap="butt" stroke-opacity="0.0" clip-path="url(#id_0)" d="M522.0 263.0L520.0 263.0L520.0 294.0C520.0 294.55228 520.4477 295.0 521.0 295.0L521.0 295.0C521.5523 295.0 522.0 294.55228 522.0 294.0Z" fill-rule="nonzero"/><path fill="#4285f4" clip-path="url(#id_0)" d="M522.0 263.0L520.0 263.0L520.0 294.0C520.0 294.55228 520.4477 295.0 521.0 295.0L521.0 295.0C521.5523 295.0 522.0 294.55228 522.0 294.0Z" fill-rule="nonzero"/><path stroke="#000000" stroke-width="2.0" stroke-linecap="butt" stroke-opacity="0.0" clip-path="url(#id_0)" d="M629.0 263.0L627.0 263.0L627.0 294.0C627.0 294.55228 627.4477 295.0 628.0 295.0L628.0 295.0C628.5523 295.0 629.0 294.55228 629.0 294.0Z" fill-rule="nonzero"/><path fill="#4285f4" clip-path="url(#id_0)" d="M629.0 263.0L627.0 263.0L627.0 294.0C627.0 294.55228 627.4477 295.0 628.0 295.0L628.0 295.0C628.5523 295.0 629.0 294.55228 629.0 294.0Z" fill-rule="nonzero"/><path stroke="#000000" stroke-width="2.0" stroke-linecap="butt" stroke-opacity="0.0" clip-path="url(#id_0)" d="M737.0 263.0L735.0 263.0L735.0 294.0C735.0 294.55228 735.4477 295.0 736.0 295.0L736.0 295.0C736.5523 295.0 737.0 294.55228 737.0 294.0Z" fill-rule="nonzero"/><path fill="#4285f4" clip-path="url(#id_0)" d="M737.0 263.0L735.0 263.0L735.0 294.0C735.0 294.55228 735.4477 295.0 736.0 295.0L736.0 295.0C736.5523 295.0 737.0 294.55228 737.0 294.0Z" fill-rule="nonzero"/><path stroke="#000000" stroke-width="2.0" stroke-linecap="butt" stroke-opacity="0.0" clip-path="url(#id_0)" d="M844.0 263.0L842.0 263.0L842.0 294.0C842.0 294.55228 842.4477 295.0 843.0 295.0L843.0 295.0C843.5523 295.0 844.0 294.55228 844.0 294.0Z" fill-rule="nonzero"/><path fill="#4285f4" clip-path="url(#id_0)" d="M844.0 263.0L842.0 263.0L842.0 294.0C842.0 294.55228 842.4477 295.0 843.0 295.0L843.0 295.0C843.5523 295.0 844.0 294.55228 844.0 294.0Z" fill-rule="nonzero"/><path stroke="#000000" stroke-width="2.0" stroke-linecap="butt" stroke-opacity="0.0" clip-path="url(#id_0)" d="M96.0 263.0L94.0 263.0L94.0 294.0C94.0 294.55228 94.447716 295.0 95.0 295.0L95.0 295.0C95.552284 295.0 96.0 294.55228 96.0 294.0Z" fill-rule="nonzero"/><path fill="#ea4335" clip-path="url(#id_0)" d="M96.0 263.0L94.0 263.0L94.0 294.0C94.0 294.55228 94.447716 295.0 95.0 295.0L95.0 295.0C95.552284 295.0 96.0 294.55228 96.0 294.0Z" fill-rule="nonzero"/><path stroke="#000000" stroke-width="2.0" stroke-linecap="butt" stroke-opacity="0.0" clip-path="url(#id_0)" d="M203.0 263.0L201.0 263.0L201.0 357.0C201.0 357.55228 201.44771 358.0 202.0 358.0L202.0 358.0C202.55229 358.0 203.0 357.55228 203.0 357.0Z" fill-rule="nonzero"/><path fill="#ea4335" clip-path="url(#id_0)" d="M203.0 263.0L201.0 263.0L201.0 357.0C201.0 357.55228 201.44771 358.0 202.0 358.0L202.0 358.0C202.55229 358.0 203.0 357.55228 203.0 357.0Z" fill-rule="nonzero"/><path stroke="#000000" stroke-width="2.0" stroke-linecap="butt" stroke-opacity="0.0" clip-path="url(#id_0)" d="M311.0 263.0L309.0 263.0L309.0 294.0C309.0 294.55228 309.44772 295.0 310.0 295.0L310.0 295.0C310.55228 295.0 311.0 294.55228 311.0 294.0Z" fill-rule="nonzero"/><path fill="#ea4335" clip-path="url(#id_0)" d="M311.0 263.0L309.0 263.0L309.0 294.0C309.0 294.55228 309.44772 295.0 310.0 295.0L310.0 295.0C310.55228 295.0 311.0 294.55228 311.0 294.0Z" fill-rule="nonzero"/><path stroke="#000000" stroke-width="2.0" stroke-linecap="butt" stroke-opacity="0.0" clip-path="url(#id_0)" d="M418.0 263.0L416.0 263.0L416.0 294.0C416.0 294.55228 416.44772 295.0 417.0 295.0L417.0 295.0C417.55228 295.0 418.0 294.55228 418.0 294.0Z" fill-rule="nonzero"/><path fill="#ea4335" clip-path="url(#id_0)" d="M418.0 263.0L416.0 263.0L416.0 294.0C416.0 294.55228 416.44772 295.0 417.0 295.0L417.0 295.0C417.55228 295.0 418.0 294.55228 418.0 294.0Z" fill-rule="nonzero"/><path stroke="#000000" stroke-width="2.0" stroke-linecap="butt" stroke-opacity="0.0" clip-path="url(#id_0)" d="M526.0 263.0L524.0 263.0L524.0 294.0C524.0 294.55228 524.4477 295.0 525.0 295.0L525.0 295.0C525.5523 295.0 526.0 294.55228 526.0 294.0Z" fill-rule="nonzero"/><path fill="#ea4335" clip-path="url(#id_0)" d="M526.0 263.0L524.0 263.0L524.0 294.0C524.0 294.55228 524.4477 295.0 525.0 295.0L525.0 295.0C525.5523 295.0 526.0 294.55228 526.0 294.0Z" fill-rule="nonzero"/><path stroke="#000000" stroke-width="2.0" stroke-linecap="butt" stroke-opacity="0.0" clip-path="url(#id_0)" d="M633.0 263.0L631.0 263.0L631.0 263.0L633.0 263.0Z" fill-rule="nonzero"/><path fill="#ea4335" clip-path="url(#id_0)" d="M633.0 263.0L631.0 263.0L631.0 263.0L633.0 263.0Z" fill-rule="nonzero"/><path stroke="#000000" stroke-width="2.0" stroke-linecap="butt" stroke-opacity="0.0" clip-path="url(#id_0)" d="M741.0 263.0L739.0 263.0L739.0 263.0L741.0 263.0Z" fill-rule="nonzero"/><path fill="#ea4335" clip-path="url(#id_0)" d="M741.0 263.0L739.0 263.0L739.0 263.0L741.0 263.0Z" fill-rule="nonzero"/><path stroke="#000000" stroke-width="2.0" stroke-linecap="butt" stroke-opacity="0.0" clip-path="url(#id_0)" d="M848.0 263.0L846.0 263.0L846.0 294.0C846.0 294.55228 846.4477 295.0 847.0 295.0L847.0 295.0C847.5523 295.0 848.0 294.55228 848.0 294.0Z" fill-rule="nonzero"/><path fill="#ea4335" clip-path="url(#id_0)" d="M848.0 263.0L846.0 263.0L846.0 294.0C846.0 294.55228 846.4477 295.0 847.0 295.0L847.0 295.0C847.5523 295.0 848.0 294.55228 848.0 294.0Z" fill-rule="nonzero"/><path stroke="#000000" stroke-width="2.0" stroke-linecap="butt" stroke-opacity="0.0" clip-path="url(#id_0)" d="M100.0 263.0L98.0 263.0L98.0 294.0C98.0 294.55228 98.447716 295.0 99.0 295.0L99.0 295.0C99.552284 295.0 100.0 294.55228 100.0 294.0Z" fill-rule="nonzero"/><path fill="#fbbc04" clip-path="url(#id_0)" d="M100.0 263.0L98.0 263.0L98.0 294.0C98.0 294.55228 98.447716 295.0 99.0 295.0L99.0 295.0C99.552284 295.0 100.0 294.55228 100.0 294.0Z" fill-rule="nonzero"/><path stroke="#000000" stroke-width="2.0" stroke-linecap="butt" stroke-opacity="0.0" clip-path="url(#id_0)" d="M207.0 263.0L205.0 263.0L205.0 357.0C205.0 357.55228 205.44771 358.0 206.0 358.0L206.0 358.0C206.55229 358.0 207.0 357.55228 207.0 357.0Z" fill-rule="nonzero"/><path fill="#fbbc04" clip-path="url(#id_0)" d="M207.0 263.0L205.0 263.0L205.0 357.0C205.0 357.55228 205.44771 358.0 206.0 358.0L206.0 358.0C206.55229 358.0 207.0 357.55228 207.0 357.0Z" fill-rule="nonzero"/><path stroke="#000000" stroke-width="2.0" stroke-linecap="butt" stroke-opacity="0.0" clip-path="url(#id_0)" d="M315.0 263.0L313.0 263.0L313.0 294.0C313.0 294.55228 313.44772 295.0 314.0 295.0L314.0 295.0C314.55228 295.0 315.0 294.55228 315.0 294.0Z" fill-rule="nonzero"/><path fill="#fbbc04" clip-path="url(#id_0)" d="M315.0 263.0L313.0 263.0L313.0 294.0C313.0 294.55228 313.44772 295.0 314.0 295.0L314.0 295.0C314.55228 295.0 315.0 294.55228 315.0 294.0Z" fill-rule="nonzero"/><path stroke="#000000" stroke-width="2.0" stroke-linecap="butt" stroke-opacity="0.0" clip-path="url(#id_0)" d="M422.0 263.0L420.0 263.0L420.0 325.0C420.0 325.55228 420.44772 326.0 421.0 326.0L421.0 326.0C421.55228 326.0 422.0 325.55228 422.0 325.0Z" fill-rule="nonzero"/><path fill="#fbbc04" clip-path="url(#id_0)" d="M422.0 263.0L420.0 263.0L420.0 325.0C420.0 325.55228 420.44772 326.0 421.0 326.0L421.0 326.0C421.55228 326.0 422.0 325.55228 422.0 325.0Z" fill-rule="nonzero"/><path stroke="#000000" stroke-width="2.0" stroke-linecap="butt" stroke-opacity="0.0" clip-path="url(#id_0)" d="M530.0 263.0L528.0 263.0L528.0 294.0C528.0 294.55228 528.4477 295.0 529.0 295.0L529.0 295.0C529.5523 295.0 530.0 294.55228 530.0 294.0Z" fill-rule="nonzero"/><path fill="#fbbc04" clip-path="url(#id_0)" d="M530.0 263.0L528.0 263.0L528.0 294.0C528.0 294.55228 528.4477 295.0 529.0 295.0L529.0 295.0C529.5523 295.0 530.0 294.55228 530.0 294.0Z" fill-rule="nonzero"/><path stroke="#000000" stroke-width="2.0" stroke-linecap="butt" stroke-opacity="0.0" clip-path="url(#id_0)" d="M637.0 263.0L635.0 263.0L635.0 263.0L637.0 263.0Z" fill-rule="nonzero"/><path fill="#fbbc04" clip-path="url(#id_0)" d="M637.0 263.0L635.0 263.0L635.0 263.0L637.0 263.0Z" fill-rule="nonzero"/><path stroke="#000000" stroke-width="2.0" stroke-linecap="butt" stroke-opacity="0.0" clip-path="url(#id_0)" d="M745.0 263.0L743.0 263.0L743.0 294.0C743.0 294.55228 743.4477 295.0 744.0 295.0L744.0 295.0C744.5523 295.0 745.0 294.55228 745.0 294.0Z" fill-rule="nonzero"/><path fill="#fbbc04" clip-path="url(#id_0)" d="M745.0 263.0L743.0 263.0L743.0 294.0C743.0 294.55228 743.4477 295.0 744.0 295.0L744.0 295.0C744.5523 295.0 745.0 294.55228 745.0 294.0Z" fill-rule="nonzero"/><path stroke="#000000" stroke-width="2.0" stroke-linecap="butt" stroke-opacity="0.0" clip-path="url(#id_0)" d="M852.0 263.0L850.0 263.0L850.0 294.0C850.0 294.55228 850.4477 295.0 851.0 295.0L851.0 295.0C851.5523 295.0 852.0 294.55228 852.0 294.0Z" fill-rule="nonzero"/><path fill="#fbbc04" clip-path="url(#id_0)" d="M852.0 263.0L850.0 263.0L850.0 294.0C850.0 294.55228 850.4477 295.0 851.0 295.0L851.0 295.0C851.5523 295.0 852.0 294.55228 852.0 294.0Z" fill-rule="nonzero"/><path stroke="#000000" stroke-width="2.0" stroke-linecap="butt" stroke-opacity="0.0" clip-path="url(#id_0)" d="M104.0 263.0L102.0 263.0L102.0 263.0L104.0 263.0Z" fill-rule="nonzero"/><path fill="#34a853" clip-path="url(#id_0)" d="M104.0 263.0L102.0 263.0L102.0 263.0L104.0 263.0Z" fill-rule="nonzero"/><path stroke="#000000" stroke-width="2.0" stroke-linecap="butt" stroke-opacity="0.0" clip-path="url(#id_0)" d="M211.0 263.0L209.0 263.0L209.0 389.0C209.0 389.55228 209.44771 390.0 210.0 390.0L210.0 390.0C210.55229 390.0 211.0 389.55228 211.0 389.0Z" fill-rule="nonzero"/><path fill="#34a853" clip-path="url(#id_0)" d="M211.0 263.0L209.0 263.0L209.0 389.0C209.0 389.55228 209.44771 390.0 210.0 390.0L210.0 390.0C210.55229 390.0 211.0 389.55228 211.0 389.0Z" fill-rule="nonzero"/><path stroke="#000000" stroke-width="2.0" stroke-linecap="butt" stroke-opacity="0.0" clip-path="url(#id_0)" d="M319.0 263.0L317.0 263.0L317.0 294.0C317.0 294.55228 317.44772 295.0 318.0 295.0L318.0 295.0C318.55228 295.0 319.0 294.55228 319.0 294.0Z" fill-rule="nonzero"/><path fill="#34a853" clip-path="url(#id_0)" d="M319.0 263.0L317.0 263.0L317.0 294.0C317.0 294.55228 317.44772 295.0 318.0 295.0L318.0 295.0C318.55228 295.0 319.0 294.55228 319.0 294.0Z" fill-rule="nonzero"/><path stroke="#000000" stroke-width="2.0" stroke-linecap="butt" stroke-opacity="0.0" clip-path="url(#id_0)" d="M426.0 263.0L424.0 263.0L424.0 200.0C424.0 199.44771 424.44772 199.0 425.0 199.0L425.0 199.0C425.55228 199.0 426.0 199.44771 426.0 200.0Z" fill-rule="nonzero"/><path fill="#34a853" clip-path="url(#id_0)" d="M426.0 263.0L424.0 263.0L424.0 200.0C424.0 199.44771 424.44772 199.0 425.0 199.0L425.0 199.0C425.55228 199.0 426.0 199.44771 426.0 200.0Z" fill-rule="nonzero"/><path stroke="#000000" stroke-width="2.0" stroke-linecap="butt" stroke-opacity="0.0" clip-path="url(#id_0)" d="M534.0 263.0L532.0 263.0L532.0 232.0C532.0 231.44771 532.4477 231.0 533.0 231.0L533.0 231.0C533.5523 231.0 534.0 231.44771 534.0 232.0Z" fill-rule="nonzero"/><path fill="#34a853" clip-path="url(#id_0)" d="M534.0 263.0L532.0 263.0L532.0 232.0C532.0 231.44771 532.4477 231.0 533.0 231.0L533.0 231.0C533.5523 231.0 534.0 231.44771 534.0 232.0Z" fill-rule="nonzero"/><path stroke="#000000" stroke-width="2.0" stroke-linecap="butt" stroke-opacity="0.0" clip-path="url(#id_0)" d="M641.0 263.0L639.0 263.0L639.0 263.0L641.0 263.0Z" fill-rule="nonzero"/><path fill="#34a853" clip-path="url(#id_0)" d="M641.0 263.0L639.0 263.0L639.0 263.0L641.0 263.0Z" fill-rule="nonzero"/><path stroke="#000000" stroke-width="2.0" stroke-linecap="butt" stroke-opacity="0.0" clip-path="url(#id_0)" d="M749.0 263.0L747.0 263.0L747.0 200.0C747.0 199.44771 747.4477 199.0 748.0 199.0L748.0 199.0C748.5523 199.0 749.0 199.44771 749.0 200.0Z" fill-rule="nonzero"/><path fill="#34a853" clip-path="url(#id_0)" d="M749.0 263.0L747.0 263.0L747.0 200.0C747.0 199.44771 747.4477 199.0 748.0 199.0L748.0 199.0C748.5523 199.0 749.0 199.44771 749.0 200.0Z" fill-rule="nonzero"/><path stroke="#000000" stroke-width="2.0" stroke-linecap="butt" stroke-opacity="0.0" clip-path="url(#id_0)" d="M856.0 263.0L854.0 263.0L854.0 294.0C854.0 294.55228 854.4477 295.0 855.0 295.0L855.0 295.0C855.5523 295.0 856.0 294.55228 856.0 294.0Z" fill-rule="nonzero"/><path fill="#34a853" clip-path="url(#id_0)" d="M856.0 263.0L854.0 263.0L854.0 294.0C854.0 294.55228 854.4477 295.0 855.0 295.0L855.0 295.0C855.5523 295.0 856.0 294.55228 856.0 294.0Z" fill-rule="nonzero"/><path stroke="#000000" stroke-width="2.0" stroke-linecap="butt" stroke-opacity="0.0" clip-path="url(#id_0)" d="M108.0 263.0L106.0 263.0L106.0 263.0L108.0 263.0Z" fill-rule="nonzero"/><path fill="#ff6d01" clip-path="url(#id_0)" d="M108.0 263.0L106.0 263.0L106.0 263.0L108.0 263.0Z" fill-rule="nonzero"/><path stroke="#000000" stroke-width="2.0" stroke-linecap="butt" stroke-opacity="0.0" clip-path="url(#id_0)" d="M215.0 263.0L213.0 263.0L213.0 357.0C213.0 357.55228 213.44771 358.0 214.0 358.0L214.0 358.0C214.55229 358.0 215.0 357.55228 215.0 357.0Z" fill-rule="nonzero"/><path fill="#ff6d01" clip-path="url(#id_0)" d="M215.0 263.0L213.0 263.0L213.0 357.0C213.0 357.55228 213.44771 358.0 214.0 358.0L214.0 358.0C214.55229 358.0 215.0 357.55228 215.0 357.0Z" fill-rule="nonzero"/><path stroke="#000000" stroke-width="2.0" stroke-linecap="butt" stroke-opacity="0.0" clip-path="url(#id_0)" d="M323.0 263.0L321.0 263.0L321.0 200.0C321.0 199.44771 321.44772 199.0 322.0 199.0L322.0 199.0C322.55228 199.0 323.0 199.44771 323.0 200.0Z" fill-rule="nonzero"/><path fill="#ff6d01" clip-path="url(#id_0)" d="M323.0 263.0L321.0 263.0L321.0 200.0C321.0 199.44771 321.44772 199.0 322.0 199.0L322.0 199.0C322.55228 199.0 323.0 199.44771 323.0 200.0Z" fill-rule="nonzero"/><path stroke="#000000" stroke-width="2.0" stroke-linecap="butt" stroke-opacity="0.0" clip-path="url(#id_0)" d="M430.0 263.0L428.0 263.0L428.0 169.0C428.0 168.44771 428.44772 168.0 429.0 168.0L429.0 168.0C429.55228 168.0 430.0 168.44771 430.0 169.0Z" fill-rule="nonzero"/><path fill="#ff6d01" clip-path="url(#id_0)" d="M430.0 263.0L428.0 263.0L428.0 169.0C428.0 168.44771 428.44772 168.0 429.0 168.0L429.0 168.0C429.55228 168.0 430.0 168.44771 430.0 169.0Z" fill-rule="nonzero"/><path stroke="#000000" stroke-width="2.0" stroke-linecap="butt" stroke-opacity="0.0" clip-path="url(#id_0)" d="M538.0 263.0L536.0 263.0L536.0 294.0C536.0 294.55228 536.4477 295.0 537.0 295.0L537.0 295.0C537.5523 295.0 538.0 294.55228 538.0 294.0Z" fill-rule="nonzero"/><path fill="#ff6d01" clip-path="url(#id_0)" d="M538.0 263.0L536.0 263.0L536.0 294.0C536.0 294.55228 536.4477 295.0 537.0 295.0L537.0 295.0C537.5523 295.0 538.0 294.55228 538.0 294.0Z" fill-rule="nonzero"/><path stroke="#000000" stroke-width="2.0" stroke-linecap="butt" stroke-opacity="0.0" clip-path="url(#id_0)" d="M645.0 263.0L643.0 263.0L643.0 263.0L645.0 263.0Z" fill-rule="nonzero"/><path fill="#ff6d01" clip-path="url(#id_0)" d="M645.0 263.0L643.0 263.0L643.0 263.0L645.0 263.0Z" fill-rule="nonzero"/><path stroke="#000000" stroke-width="2.0" stroke-linecap="butt" stroke-opacity="0.0" clip-path="url(#id_0)" d="M753.0 263.0L751.0 263.0L751.0 263.0L753.0 263.0Z" fill-rule="nonzero"/><path fill="#ff6d01" clip-path="url(#id_0)" d="M753.0 263.0L751.0 263.0L751.0 263.0L753.0 263.0Z" fill-rule="nonzero"/><path stroke="#000000" stroke-width="2.0" stroke-linecap="butt" stroke-opacity="0.0" clip-path="url(#id_0)" d="M860.0 263.0L858.0 263.0L858.0 294.0C858.0 294.55228 858.4477 295.0 859.0 295.0L859.0 295.0C859.5523 295.0 860.0 294.55228 860.0 294.0Z" fill-rule="nonzero"/><path fill="#ff6d01" clip-path="url(#id_0)" d="M860.0 263.0L858.0 263.0L858.0 294.0C858.0 294.55228 858.4477 295.0 859.0 295.0L859.0 295.0C859.5523 295.0 860.0 294.55228 860.0 294.0Z" fill-rule="nonzero"/><path stroke="#000000" stroke-width="2.0" stroke-linecap="butt" stroke-opacity="0.0" clip-path="url(#id_0)" d="M112.0 263.0L110.0 263.0L110.0 263.0L112.0 263.0Z" fill-rule="nonzero"/><path fill="#46bdc6" clip-path="url(#id_0)" d="M112.0 263.0L110.0 263.0L110.0 263.0L112.0 263.0Z" fill-rule="nonzero"/><path stroke="#000000" stroke-width="2.0" stroke-linecap="butt" stroke-opacity="0.0" clip-path="url(#id_0)" d="M219.0 263.0L217.0 263.0L217.0 137.0C217.0 136.44771 217.44771 136.0 218.0 136.0L218.0 136.0C218.55229 136.0 219.0 136.44771 219.0 137.0Z" fill-rule="nonzero"/><path fill="#46bdc6" clip-path="url(#id_0)" d="M219.0 263.0L217.0 263.0L217.0 137.0C217.0 136.44771 217.44771 136.0 218.0 136.0L218.0 136.0C218.55229 136.0 219.0 136.44771 219.0 137.0Z" fill-rule="nonzero"/><path stroke="#000000" stroke-width="2.0" stroke-linecap="butt" stroke-opacity="0.0" clip-path="url(#id_0)" d="M327.0 263.0L325.0 263.0L325.0 200.0C325.0 199.44771 325.44772 199.0 326.0 199.0L326.0 199.0C326.55228 199.0 327.0 199.44771 327.0 200.0Z" fill-rule="nonzero"/><path fill="#46bdc6" clip-path="url(#id_0)" d="M327.0 263.0L325.0 263.0L325.0 200.0C325.0 199.44771 325.44772 199.0 326.0 199.0L326.0 199.0C326.55228 199.0 327.0 199.44771 327.0 200.0Z" fill-rule="nonzero"/><path stroke="#000000" stroke-width="2.0" stroke-linecap="butt" stroke-opacity="0.0" clip-path="url(#id_0)" d="M434.0 263.0L432.0 263.0L432.0 169.0C432.0 168.44771 432.44772 168.0 433.0 168.0L433.0 168.0C433.55228 168.0 434.0 168.44771 434.0 169.0Z" fill-rule="nonzero"/><path fill="#46bdc6" clip-path="url(#id_0)" d="M434.0 263.0L432.0 263.0L432.0 169.0C432.0 168.44771 432.44772 168.0 433.0 168.0L433.0 168.0C433.55228 168.0 434.0 168.44771 434.0 169.0Z" fill-rule="nonzero"/><path stroke="#000000" stroke-width="2.0" stroke-linecap="butt" stroke-opacity="0.0" clip-path="url(#id_0)" d="M542.0 263.0L540.0 263.0L540.0 232.0C540.0 231.44771 540.4477 231.0 541.0 231.0L541.0 231.0C541.5523 231.0 542.0 231.44771 542.0 232.0Z" fill-rule="nonzero"/><path fill="#46bdc6" clip-path="url(#id_0)" d="M542.0 263.0L540.0 263.0L540.0 232.0C540.0 231.44771 540.4477 231.0 541.0 231.0L541.0 231.0C541.5523 231.0 542.0 231.44771 542.0 232.0Z" fill-rule="nonzero"/><path stroke="#000000" stroke-width="2.0" stroke-linecap="butt" stroke-opacity="0.0" clip-path="url(#id_0)" d="M649.0 263.0L647.0 263.0L647.0 263.0L649.0 263.0Z" fill-rule="nonzero"/><path fill="#46bdc6" clip-path="url(#id_0)" d="M649.0 263.0L647.0 263.0L647.0 263.0L649.0 263.0Z" fill-rule="nonzero"/><path stroke="#000000" stroke-width="2.0" stroke-linecap="butt" stroke-opacity="0.0" clip-path="url(#id_0)" d="M757.0 263.0L755.0 263.0L755.0 263.0L757.0 263.0Z" fill-rule="nonzero"/><path fill="#46bdc6" clip-path="url(#id_0)" d="M757.0 263.0L755.0 263.0L755.0 263.0L757.0 263.0Z" fill-rule="nonzero"/><path stroke="#000000" stroke-width="2.0" stroke-linecap="butt" stroke-opacity="0.0" clip-path="url(#id_0)" d="M864.0 263.0L862.0 263.0L862.0 294.0C862.0 294.55228 862.4477 295.0 863.0 295.0L863.0 295.0C863.5523 295.0 864.0 294.55228 864.0 294.0Z" fill-rule="nonzero"/><path fill="#46bdc6" clip-path="url(#id_0)" d="M864.0 263.0L862.0 263.0L862.0 294.0C862.0 294.55228 862.4477 295.0 863.0 295.0L863.0 295.0C863.5523 295.0 864.0 294.55228 864.0 294.0Z" fill-rule="nonzero"/><path stroke="#000000" stroke-width="2.0" stroke-linecap="butt" stroke-opacity="0.0" clip-path="url(#id_0)" d="M116.0 263.0L114.0 263.0L114.0 263.0L116.0 263.0Z" fill-rule="nonzero"/><path fill="#7baaf7" clip-path="url(#id_0)" d="M116.0 263.0L114.0 263.0L114.0 263.0L116.0 263.0Z" fill-rule="nonzero"/><path stroke="#000000" stroke-width="2.0" stroke-linecap="butt" stroke-opacity="0.0" clip-path="url(#id_0)" d="M223.0 263.0L221.0 263.0L221.0 169.0C221.0 168.44771 221.44771 168.0 222.0 168.0L222.0 168.0C222.55229 168.0 223.0 168.44771 223.0 169.0Z" fill-rule="nonzero"/><path fill="#7baaf7" clip-path="url(#id_0)" d="M223.0 263.0L221.0 263.0L221.0 169.0C221.0 168.44771 221.44771 168.0 222.0 168.0L222.0 168.0C222.55229 168.0 223.0 168.44771 223.0 169.0Z" fill-rule="nonzero"/><path stroke="#000000" stroke-width="2.0" stroke-linecap="butt" stroke-opacity="0.0" clip-path="url(#id_0)" d="M331.0 263.0L329.0 263.0L329.0 232.0C329.0 231.44771 329.44772 231.0 330.0 231.0L330.0 231.0C330.55228 231.0 331.0 231.44771 331.0 232.0Z" fill-rule="nonzero"/><path fill="#7baaf7" clip-path="url(#id_0)" d="M331.0 263.0L329.0 263.0L329.0 232.0C329.0 231.44771 329.44772 231.0 330.0 231.0L330.0 231.0C330.55228 231.0 331.0 231.44771 331.0 232.0Z" fill-rule="nonzero"/><path stroke="#000000" stroke-width="2.0" stroke-linecap="butt" stroke-opacity="0.0" clip-path="url(#id_0)" d="M438.0 263.0L436.0 263.0L436.0 200.0C436.0 199.44771 436.44772 199.0 437.0 199.0L437.0 199.0C437.55228 199.0 438.0 199.44771 438.0 200.0Z" fill-rule="nonzero"/><path fill="#7baaf7" clip-path="url(#id_0)" d="M438.0 263.0L436.0 263.0L436.0 200.0C436.0 199.44771 436.44772 199.0 437.0 199.0L437.0 199.0C437.55228 199.0 438.0 199.44771 438.0 200.0Z" fill-rule="nonzero"/><path stroke="#000000" stroke-width="2.0" stroke-linecap="butt" stroke-opacity="0.0" clip-path="url(#id_0)" d="M546.0 263.0L544.0 263.0L544.0 294.0C544.0 294.55228 544.4477 295.0 545.0 295.0L545.0 295.0C545.5523 295.0 546.0 294.55228 546.0 294.0Z" fill-rule="nonzero"/><path fill="#7baaf7" clip-path="url(#id_0)" d="M546.0 263.0L544.0 263.0L544.0 294.0C544.0 294.55228 544.4477 295.0 545.0 295.0L545.0 295.0C545.5523 295.0 546.0 294.55228 546.0 294.0Z" fill-rule="nonzero"/><path stroke="#000000" stroke-width="2.0" stroke-linecap="butt" stroke-opacity="0.0" clip-path="url(#id_0)" d="M653.0 263.0L651.0 263.0L651.0 263.0L653.0 263.0Z" fill-rule="nonzero"/><path fill="#7baaf7" clip-path="url(#id_0)" d="M653.0 263.0L651.0 263.0L651.0 263.0L653.0 263.0Z" fill-rule="nonzero"/><path stroke="#000000" stroke-width="2.0" stroke-linecap="butt" stroke-opacity="0.0" clip-path="url(#id_0)" d="M761.0 263.0L759.0 263.0L759.0 263.0L761.0 263.0Z" fill-rule="nonzero"/><path fill="#7baaf7" clip-path="url(#id_0)" d="M761.0 263.0L759.0 263.0L759.0 263.0L761.0 263.0Z" fill-rule="nonzero"/><path stroke="#000000" stroke-width="2.0" stroke-linecap="butt" stroke-opacity="0.0" clip-path="url(#id_0)" d="M868.0 263.0L866.0 263.0L866.0 232.0C866.0 231.44771 866.4477 231.0 867.0 231.0L867.0 231.0C867.5523 231.0 868.0 231.44771 868.0 232.0Z" fill-rule="nonzero"/><path fill="#7baaf7" clip-path="url(#id_0)" d="M868.0 263.0L866.0 263.0L866.0 232.0C866.0 231.44771 866.4477 231.0 867.0 231.0L867.0 231.0C867.5523 231.0 868.0 231.44771 868.0 232.0Z" fill-rule="nonzero"/><path stroke="#000000" stroke-width="2.0" stroke-linecap="butt" stroke-opacity="0.0" clip-path="url(#id_0)" d="M120.0 263.0L118.0 263.0L118.0 263.0L120.0 263.0Z" fill-rule="nonzero"/><path fill="#f07b72" clip-path="url(#id_0)" d="M120.0 263.0L118.0 263.0L118.0 263.0L120.0 263.0Z" fill-rule="nonzero"/><path stroke="#000000" stroke-width="2.0" stroke-linecap="butt" stroke-opacity="0.0" clip-path="url(#id_0)" d="M227.0 263.0L225.0 263.0L225.0 169.0C225.0 168.44771 225.44771 168.0 226.0 168.0L226.0 168.0C226.55229 168.0 227.0 168.44771 227.0 169.0Z" fill-rule="nonzero"/><path fill="#f07b72" clip-path="url(#id_0)" d="M227.0 263.0L225.0 263.0L225.0 169.0C225.0 168.44771 225.44771 168.0 226.0 168.0L226.0 168.0C226.55229 168.0 227.0 168.44771 227.0 169.0Z" fill-rule="nonzero"/><path stroke="#000000" stroke-width="2.0" stroke-linecap="butt" stroke-opacity="0.0" clip-path="url(#id_0)" d="M335.0 263.0L333.0 263.0L333.0 200.0C333.0 199.44771 333.44772 199.0 334.0 199.0L334.0 199.0C334.55228 199.0 335.0 199.44771 335.0 200.0Z" fill-rule="nonzero"/><path fill="#f07b72" clip-path="url(#id_0)" d="M335.0 263.0L333.0 263.0L333.0 200.0C333.0 199.44771 333.44772 199.0 334.0 199.0L334.0 199.0C334.55228 199.0 335.0 199.44771 335.0 200.0Z" fill-rule="nonzero"/><path stroke="#000000" stroke-width="2.0" stroke-linecap="butt" stroke-opacity="0.0" clip-path="url(#id_0)" d="M442.0 263.0L440.0 263.0L440.0 200.0C440.0 199.44771 440.44772 199.0 441.0 199.0L441.0 199.0C441.55228 199.0 442.0 199.44771 442.0 200.0Z" fill-rule="nonzero"/><path fill="#f07b72" clip-path="url(#id_0)" d="M442.0 263.0L440.0 263.0L440.0 200.0C440.0 199.44771 440.44772 199.0 441.0 199.0L441.0 199.0C441.55228 199.0 442.0 199.44771 442.0 200.0Z" fill-rule="nonzero"/><path stroke="#000000" stroke-width="2.0" stroke-linecap="butt" stroke-opacity="0.0" clip-path="url(#id_0)" d="M550.0 263.0L548.0 263.0L548.0 294.0C548.0 294.55228 548.4477 295.0 549.0 295.0L549.0 295.0C549.5523 295.0 550.0 294.55228 550.0 294.0Z" fill-rule="nonzero"/><path fill="#f07b72" clip-path="url(#id_0)" d="M550.0 263.0L548.0 263.0L548.0 294.0C548.0 294.55228 548.4477 295.0 549.0 295.0L549.0 295.0C549.5523 295.0 550.0 294.55228 550.0 294.0Z" fill-rule="nonzero"/><path stroke="#000000" stroke-width="2.0" stroke-linecap="butt" stroke-opacity="0.0" clip-path="url(#id_0)" d="M657.0 263.0L655.0 263.0L655.0 263.0L657.0 263.0Z" fill-rule="nonzero"/><path fill="#f07b72" clip-path="url(#id_0)" d="M657.0 263.0L655.0 263.0L655.0 263.0L657.0 263.0Z" fill-rule="nonzero"/><path stroke="#000000" stroke-width="2.0" stroke-linecap="butt" stroke-opacity="0.0" clip-path="url(#id_0)" d="M765.0 263.0L763.0 263.0L763.0 263.0L765.0 263.0Z" fill-rule="nonzero"/><path fill="#f07b72" clip-path="url(#id_0)" d="M765.0 263.0L763.0 263.0L763.0 263.0L765.0 263.0Z" fill-rule="nonzero"/><path stroke="#000000" stroke-width="2.0" stroke-linecap="butt" stroke-opacity="0.0" clip-path="url(#id_0)" d="M872.0 263.0L870.0 263.0L870.0 294.0C870.0 294.55228 870.4477 295.0 871.0 295.0L871.0 295.0C871.5523 295.0 872.0 294.55228 872.0 294.0Z" fill-rule="nonzero"/><path fill="#f07b72" clip-path="url(#id_0)" d="M872.0 263.0L870.0 263.0L870.0 294.0C870.0 294.55228 870.4477 295.0 871.0 295.0L871.0 295.0C871.5523 295.0 872.0 294.55228 872.0 294.0Z" fill-rule="nonzero"/><path stroke="#000000" stroke-width="2.0" stroke-linecap="butt" stroke-opacity="0.0" clip-path="url(#id_0)" d="M124.0 263.0L122.0 263.0L122.0 263.0L124.0 263.0Z" fill-rule="nonzero"/><path fill="#fcd04f" clip-path="url(#id_0)" d="M124.0 263.0L122.0 263.0L122.0 263.0L124.0 263.0Z" fill-rule="nonzero"/><path stroke="#000000" stroke-width="2.0" stroke-linecap="butt" stroke-opacity="0.0" clip-path="url(#id_0)" d="M231.0 263.0L229.0 263.0L229.0 169.0C229.0 168.44771 229.44771 168.0 230.0 168.0L230.0 168.0C230.55229 168.0 231.0 168.44771 231.0 169.0Z" fill-rule="nonzero"/><path fill="#fcd04f" clip-path="url(#id_0)" d="M231.0 263.0L229.0 263.0L229.0 169.0C229.0 168.44771 229.44771 168.0 230.0 168.0L230.0 168.0C230.55229 168.0 231.0 168.44771 231.0 169.0Z" fill-rule="nonzero"/><path stroke="#000000" stroke-width="2.0" stroke-linecap="butt" stroke-opacity="0.0" clip-path="url(#id_0)" d="M339.0 263.0L337.0 263.0L337.0 232.0C337.0 231.44771 337.44772 231.0 338.0 231.0L338.0 231.0C338.55228 231.0 339.0 231.44771 339.0 232.0Z" fill-rule="nonzero"/><path fill="#fcd04f" clip-path="url(#id_0)" d="M339.0 263.0L337.0 263.0L337.0 232.0C337.0 231.44771 337.44772 231.0 338.0 231.0L338.0 231.0C338.55228 231.0 339.0 231.44771 339.0 232.0Z" fill-rule="nonzero"/><path stroke="#000000" stroke-width="2.0" stroke-linecap="butt" stroke-opacity="0.0" clip-path="url(#id_0)" d="M446.0 263.0L444.0 263.0L444.0 169.0C444.0 168.44771 444.44772 168.0 445.0 168.0L445.0 168.0C445.55228 168.0 446.0 168.44771 446.0 169.0Z" fill-rule="nonzero"/><path fill="#fcd04f" clip-path="url(#id_0)" d="M446.0 263.0L444.0 263.0L444.0 169.0C444.0 168.44771 444.44772 168.0 445.0 168.0L445.0 168.0C445.55228 168.0 446.0 168.44771 446.0 169.0Z" fill-rule="nonzero"/><path stroke="#000000" stroke-width="2.0" stroke-linecap="butt" stroke-opacity="0.0" clip-path="url(#id_0)" d="M554.0 263.0L552.0 263.0L552.0 294.0C552.0 294.55228 552.4477 295.0 553.0 295.0L553.0 295.0C553.5523 295.0 554.0 294.55228 554.0 294.0Z" fill-rule="nonzero"/><path fill="#fcd04f" clip-path="url(#id_0)" d="M554.0 263.0L552.0 263.0L552.0 294.0C552.0 294.55228 552.4477 295.0 553.0 295.0L553.0 295.0C553.5523 295.0 554.0 294.55228 554.0 294.0Z" fill-rule="nonzero"/><path stroke="#000000" stroke-width="2.0" stroke-linecap="butt" stroke-opacity="0.0" clip-path="url(#id_0)" d="M661.0 263.0L659.0 263.0L659.0 263.0L661.0 263.0Z" fill-rule="nonzero"/><path fill="#fcd04f" clip-path="url(#id_0)" d="M661.0 263.0L659.0 263.0L659.0 263.0L661.0 263.0Z" fill-rule="nonzero"/><path stroke="#000000" stroke-width="2.0" stroke-linecap="butt" stroke-opacity="0.0" clip-path="url(#id_0)" d="M769.0 263.0L767.0 263.0L767.0 263.0L769.0 263.0Z" fill-rule="nonzero"/><path fill="#fcd04f" clip-path="url(#id_0)" d="M769.0 263.0L767.0 263.0L767.0 263.0L769.0 263.0Z" fill-rule="nonzero"/><path stroke="#000000" stroke-width="2.0" stroke-linecap="butt" stroke-opacity="0.0" clip-path="url(#id_0)" d="M876.0 263.0L874.0 263.0L874.0 232.0C874.0 231.44771 874.4477 231.0 875.0 231.0L875.0 231.0C875.5523 231.0 876.0 231.44771 876.0 232.0Z" fill-rule="nonzero"/><path fill="#fcd04f" clip-path="url(#id_0)" d="M876.0 263.0L874.0 263.0L874.0 232.0C874.0 231.44771 874.4477 231.0 875.0 231.0L875.0 231.0C875.5523 231.0 876.0 231.44771 876.0 232.0Z" fill-rule="nonzero"/><path stroke="#000000" stroke-width="2.0" stroke-linecap="butt" stroke-opacity="0.0" clip-path="url(#id_0)" d="M128.0 263.0L126.0 263.0L126.0 263.0L128.0 263.0Z" fill-rule="nonzero"/><path fill="#71c287" clip-path="url(#id_0)" d="M128.0 263.0L126.0 263.0L126.0 263.0L128.0 263.0Z" fill-rule="nonzero"/><path stroke="#000000" stroke-width="2.0" stroke-linecap="butt" stroke-opacity="0.0" clip-path="url(#id_0)" d="M235.0 263.0L233.0 263.0L233.0 137.0C233.0 136.44771 233.44771 136.0 234.0 136.0L234.0 136.0C234.55229 136.0 235.0 136.44771 235.0 137.0Z" fill-rule="nonzero"/><path fill="#71c287" clip-path="url(#id_0)" d="M235.0 263.0L233.0 263.0L233.0 137.0C233.0 136.44771 233.44771 136.0 234.0 136.0L234.0 136.0C234.55229 136.0 235.0 136.44771 235.0 137.0Z" fill-rule="nonzero"/><path stroke="#000000" stroke-width="2.0" stroke-linecap="butt" stroke-opacity="0.0" clip-path="url(#id_0)" d="M343.0 263.0L341.0 263.0L341.0 232.0C341.0 231.44771 341.44772 231.0 342.0 231.0L342.0 231.0C342.55228 231.0 343.0 231.44771 343.0 232.0Z" fill-rule="nonzero"/><path fill="#71c287" clip-path="url(#id_0)" d="M343.0 263.0L341.0 263.0L341.0 232.0C341.0 231.44771 341.44772 231.0 342.0 231.0L342.0 231.0C342.55228 231.0 343.0 231.44771 343.0 232.0Z" fill-rule="nonzero"/><path stroke="#000000" stroke-width="2.0" stroke-linecap="butt" stroke-opacity="0.0" clip-path="url(#id_0)" d="M450.0 263.0L448.0 263.0L448.0 200.0C448.0 199.44771 448.44772 199.0 449.0 199.0L449.0 199.0C449.55228 199.0 450.0 199.44771 450.0 200.0Z" fill-rule="nonzero"/><path fill="#71c287" clip-path="url(#id_0)" d="M450.0 263.0L448.0 263.0L448.0 200.0C448.0 199.44771 448.44772 199.0 449.0 199.0L449.0 199.0C449.55228 199.0 450.0 199.44771 450.0 200.0Z" fill-rule="nonzero"/><path stroke="#000000" stroke-width="2.0" stroke-linecap="butt" stroke-opacity="0.0" clip-path="url(#id_0)" d="M558.0 263.0L556.0 263.0L556.0 294.0C556.0 294.55228 556.4477 295.0 557.0 295.0L557.0 295.0C557.5523 295.0 558.0 294.55228 558.0 294.0Z" fill-rule="nonzero"/><path fill="#71c287" clip-path="url(#id_0)" d="M558.0 263.0L556.0 263.0L556.0 294.0C556.0 294.55228 556.4477 295.0 557.0 295.0L557.0 295.0C557.5523 295.0 558.0 294.55228 558.0 294.0Z" fill-rule="nonzero"/><path stroke="#000000" stroke-width="2.0" stroke-linecap="butt" stroke-opacity="0.0" clip-path="url(#id_0)" d="M665.0 263.0L663.0 263.0L663.0 294.0C663.0 294.55228 663.4477 295.0 664.0 295.0L664.0 295.0C664.5523 295.0 665.0 294.55228 665.0 294.0Z" fill-rule="nonzero"/><path fill="#71c287" clip-path="url(#id_0)" d="M665.0 263.0L663.0 263.0L663.0 294.0C663.0 294.55228 663.4477 295.0 664.0 295.0L664.0 295.0C664.5523 295.0 665.0 294.55228 665.0 294.0Z" fill-rule="nonzero"/><path stroke="#000000" stroke-width="2.0" stroke-linecap="butt" stroke-opacity="0.0" clip-path="url(#id_0)" d="M773.0 263.0L771.0 263.0L771.0 325.0C771.0 325.55228 771.4477 326.0 772.0 326.0L772.0 326.0C772.5523 326.0 773.0 325.55228 773.0 325.0Z" fill-rule="nonzero"/><path fill="#71c287" clip-path="url(#id_0)" d="M773.0 263.0L771.0 263.0L771.0 325.0C771.0 325.55228 771.4477 326.0 772.0 326.0L772.0 326.0C772.5523 326.0 773.0 325.55228 773.0 325.0Z" fill-rule="nonzero"/><path stroke="#000000" stroke-width="2.0" stroke-linecap="butt" stroke-opacity="0.0" clip-path="url(#id_0)" d="M880.0 263.0L878.0 263.0L878.0 232.0C878.0 231.44771 878.4477 231.0 879.0 231.0L879.0 231.0C879.5523 231.0 880.0 231.44771 880.0 232.0Z" fill-rule="nonzero"/><path fill="#71c287" clip-path="url(#id_0)" d="M880.0 263.0L878.0 263.0L878.0 232.0C878.0 231.44771 878.4477 231.0 879.0 231.0L879.0 231.0C879.5523 231.0 880.0 231.44771 880.0 232.0Z" fill-rule="nonzero"/><path stroke="#000000" stroke-width="2.0" stroke-linecap="butt" stroke-opacity="0.0" clip-path="url(#id_0)" d="M132.0 263.0L130.0 263.0L130.0 263.0L132.0 263.0Z" fill-rule="nonzero"/><path fill="#ff994d" clip-path="url(#id_0)" d="M132.0 263.0L130.0 263.0L130.0 263.0L132.0 263.0Z" fill-rule="nonzero"/><path stroke="#000000" stroke-width="2.0" stroke-linecap="butt" stroke-opacity="0.0" clip-path="url(#id_0)" d="M239.0 263.0L237.0 263.0L237.0 389.0C237.0 389.55228 237.44771 390.0 238.0 390.0L238.0 390.0C238.55229 390.0 239.0 389.55228 239.0 389.0Z" fill-rule="nonzero"/><path fill="#ff994d" clip-path="url(#id_0)" d="M239.0 263.0L237.0 263.0L237.0 389.0C237.0 389.55228 237.44771 390.0 238.0 390.0L238.0 390.0C238.55229 390.0 239.0 389.55228 239.0 389.0Z" fill-rule="nonzero"/><path stroke="#000000" stroke-width="2.0" stroke-linecap="butt" stroke-opacity="0.0" clip-path="url(#id_0)" d="M347.0 263.0L345.0 263.0L345.0 232.0C345.0 231.44771 345.44772 231.0 346.0 231.0L346.0 231.0C346.55228 231.0 347.0 231.44771 347.0 232.0Z" fill-rule="nonzero"/><path fill="#ff994d" clip-path="url(#id_0)" d="M347.0 263.0L345.0 263.0L345.0 232.0C345.0 231.44771 345.44772 231.0 346.0 231.0L346.0 231.0C346.55228 231.0 347.0 231.44771 347.0 232.0Z" fill-rule="nonzero"/><path stroke="#000000" stroke-width="2.0" stroke-linecap="butt" stroke-opacity="0.0" clip-path="url(#id_0)" d="M454.0 263.0L452.0 263.0L452.0 169.0C452.0 168.44771 452.44772 168.0 453.0 168.0L453.0 168.0C453.55228 168.0 454.0 168.44771 454.0 169.0Z" fill-rule="nonzero"/><path fill="#ff994d" clip-path="url(#id_0)" d="M454.0 263.0L452.0 263.0L452.0 169.0C452.0 168.44771 452.44772 168.0 453.0 168.0L453.0 168.0C453.55228 168.0 454.0 168.44771 454.0 169.0Z" fill-rule="nonzero"/><path stroke="#000000" stroke-width="2.0" stroke-linecap="butt" stroke-opacity="0.0" clip-path="url(#id_0)" d="M562.0 263.0L560.0 263.0L560.0 294.0C560.0 294.55228 560.4477 295.0 561.0 295.0L561.0 295.0C561.5523 295.0 562.0 294.55228 562.0 294.0Z" fill-rule="nonzero"/><path fill="#ff994d" clip-path="url(#id_0)" d="M562.0 263.0L560.0 263.0L560.0 294.0C560.0 294.55228 560.4477 295.0 561.0 295.0L561.0 295.0C561.5523 295.0 562.0 294.55228 562.0 294.0Z" fill-rule="nonzero"/><path stroke="#000000" stroke-width="2.0" stroke-linecap="butt" stroke-opacity="0.0" clip-path="url(#id_0)" d="M669.0 263.0L667.0 263.0L667.0 263.0L669.0 263.0Z" fill-rule="nonzero"/><path fill="#ff994d" clip-path="url(#id_0)" d="M669.0 263.0L667.0 263.0L667.0 263.0L669.0 263.0Z" fill-rule="nonzero"/><path stroke="#000000" stroke-width="2.0" stroke-linecap="butt" stroke-opacity="0.0" clip-path="url(#id_0)" d="M777.0 263.0L775.0 263.0L775.0 263.0L777.0 263.0Z" fill-rule="nonzero"/><path fill="#ff994d" clip-path="url(#id_0)" d="M777.0 263.0L775.0 263.0L775.0 263.0L777.0 263.0Z" fill-rule="nonzero"/><path stroke="#000000" stroke-width="2.0" stroke-linecap="butt" stroke-opacity="0.0" clip-path="url(#id_0)" d="M884.0 263.0L882.0 263.0L882.0 294.0C882.0 294.55228 882.4477 295.0 883.0 295.0L883.0 295.0C883.5523 295.0 884.0 294.55228 884.0 294.0Z" fill-rule="nonzero"/><path fill="#ff994d" clip-path="url(#id_0)" d="M884.0 263.0L882.0 263.0L882.0 294.0C882.0 294.55228 882.4477 295.0 883.0 295.0L883.0 295.0C883.5523 295.0 884.0 294.55228 884.0 294.0Z" fill-rule="nonzero"/><path stroke="#000000" stroke-width="2.0" stroke-linecap="butt" stroke-opacity="0.0" clip-path="url(#id_0)" d="M136.0 263.0L134.0 263.0L134.0 263.0L136.0 263.0Z" fill-rule="nonzero"/><path fill="#7ed1d7" clip-path="url(#id_0)" d="M136.0 263.0L134.0 263.0L134.0 263.0L136.0 263.0Z" fill-rule="nonzero"/><path stroke="#000000" stroke-width="2.0" stroke-linecap="butt" stroke-opacity="0.0" clip-path="url(#id_0)" d="M243.0 263.0L241.0 263.0L241.0 105.0C241.0 104.447716 241.44771 104.0 242.0 104.0L242.0 104.0C242.55229 104.0 243.0 104.447716 243.0 105.0Z" fill-rule="nonzero"/><path fill="#7ed1d7" clip-path="url(#id_0)" d="M243.0 263.0L241.0 263.0L241.0 105.0C241.0 104.447716 241.44771 104.0 242.0 104.0L242.0 104.0C242.55229 104.0 243.0 104.447716 243.0 105.0Z" fill-rule="nonzero"/><path stroke="#000000" stroke-width="2.0" stroke-linecap="butt" stroke-opacity="0.0" clip-path="url(#id_0)" d="M351.0 263.0L349.0 263.0L349.0 263.0L351.0 263.0Z" fill-rule="nonzero"/><path fill="#7ed1d7" clip-path="url(#id_0)" d="M351.0 263.0L349.0 263.0L349.0 263.0L351.0 263.0Z" fill-rule="nonzero"/><path stroke="#000000" stroke-width="2.0" stroke-linecap="butt" stroke-opacity="0.0" clip-path="url(#id_0)" d="M458.0 263.0L456.0 263.0L456.0 200.0C456.0 199.44771 456.44772 199.0 457.0 199.0L457.0 199.0C457.55228 199.0 458.0 199.44771 458.0 200.0Z" fill-rule="nonzero"/><path fill="#7ed1d7" clip-path="url(#id_0)" d="M458.0 263.0L456.0 263.0L456.0 200.0C456.0 199.44771 456.44772 199.0 457.0 199.0L457.0 199.0C457.55228 199.0 458.0 199.44771 458.0 200.0Z" fill-rule="nonzero"/><path stroke="#000000" stroke-width="2.0" stroke-linecap="butt" stroke-opacity="0.0" clip-path="url(#id_0)" d="M566.0 263.0L564.0 263.0L564.0 263.0L566.0 263.0Z" fill-rule="nonzero"/><path fill="#7ed1d7" clip-path="url(#id_0)" d="M566.0 263.0L564.0 263.0L564.0 263.0L566.0 263.0Z" fill-rule="nonzero"/><path stroke="#000000" stroke-width="2.0" stroke-linecap="butt" stroke-opacity="0.0" clip-path="url(#id_0)" d="M673.0 263.0L671.0 263.0L671.0 263.0L673.0 263.0Z" fill-rule="nonzero"/><path fill="#7ed1d7" clip-path="url(#id_0)" d="M673.0 263.0L671.0 263.0L671.0 263.0L673.0 263.0Z" fill-rule="nonzero"/><path stroke="#000000" stroke-width="2.0" stroke-linecap="butt" stroke-opacity="0.0" clip-path="url(#id_0)" d="M781.0 263.0L779.0 263.0L779.0 263.0L781.0 263.0Z" fill-rule="nonzero"/><path fill="#7ed1d7" clip-path="url(#id_0)" d="M781.0 263.0L779.0 263.0L779.0 263.0L781.0 263.0Z" fill-rule="nonzero"/><path stroke="#000000" stroke-width="2.0" stroke-linecap="butt" stroke-opacity="0.0" clip-path="url(#id_0)" d="M888.0 263.0L886.0 263.0L886.0 232.0C886.0 231.44771 886.4477 231.0 887.0 231.0L887.0 231.0C887.5523 231.0 888.0 231.44771 888.0 232.0Z" fill-rule="nonzero"/><path fill="#7ed1d7" clip-path="url(#id_0)" d="M888.0 263.0L886.0 263.0L886.0 232.0C886.0 231.44771 886.4477 231.0 887.0 231.0L887.0 231.0C887.5523 231.0 888.0 231.44771 888.0 232.0Z" fill-rule="nonzero"/><path stroke="#000000" stroke-width="2.0" stroke-linecap="butt" stroke-opacity="0.0" clip-path="url(#id_0)" d="M140.0 263.0L138.0 263.0L138.0 263.0L140.0 263.0Z" fill-rule="nonzero"/><path fill="#b3cefb" clip-path="url(#id_0)" d="M140.0 263.0L138.0 263.0L138.0 263.0L140.0 263.0Z" fill-rule="nonzero"/><path stroke="#000000" stroke-width="2.0" stroke-linecap="butt" stroke-opacity="0.0" clip-path="url(#id_0)" d="M247.0 263.0L245.0 263.0L245.0 137.0C245.0 136.44771 245.44771 136.0 246.0 136.0L246.0 136.0C246.55229 136.0 247.0 136.44771 247.0 137.0Z" fill-rule="nonzero"/><path fill="#b3cefb" clip-path="url(#id_0)" d="M247.0 263.0L245.0 263.0L245.0 137.0C245.0 136.44771 245.44771 136.0 246.0 136.0L246.0 136.0C246.55229 136.0 247.0 136.44771 247.0 137.0Z" fill-rule="nonzero"/><path stroke="#000000" stroke-width="2.0" stroke-linecap="butt" stroke-opacity="0.0" clip-path="url(#id_0)" d="M355.0 263.0L353.0 263.0L353.0 263.0L355.0 263.0Z" fill-rule="nonzero"/><path fill="#b3cefb" clip-path="url(#id_0)" d="M355.0 263.0L353.0 263.0L353.0 263.0L355.0 263.0Z" fill-rule="nonzero"/><path stroke="#000000" stroke-width="2.0" stroke-linecap="butt" stroke-opacity="0.0" clip-path="url(#id_0)" d="M462.0 263.0L460.0 263.0L460.0 232.0C460.0 231.44771 460.44772 231.0 461.0 231.0L461.0 231.0C461.55228 231.0 462.0 231.44771 462.0 232.0Z" fill-rule="nonzero"/><path fill="#b3cefb" clip-path="url(#id_0)" d="M462.0 263.0L460.0 263.0L460.0 232.0C460.0 231.44771 460.44772 231.0 461.0 231.0L461.0 231.0C461.55228 231.0 462.0 231.44771 462.0 232.0Z" fill-rule="nonzero"/><path stroke="#000000" stroke-width="2.0" stroke-linecap="butt" stroke-opacity="0.0" clip-path="url(#id_0)" d="M570.0 263.0L568.0 263.0L568.0 263.0L570.0 263.0Z" fill-rule="nonzero"/><path fill="#b3cefb" clip-path="url(#id_0)" d="M570.0 263.0L568.0 263.0L568.0 263.0L570.0 263.0Z" fill-rule="nonzero"/><path stroke="#000000" stroke-width="2.0" stroke-linecap="butt" stroke-opacity="0.0" clip-path="url(#id_0)" d="M677.0 263.0L675.0 263.0L675.0 263.0L677.0 263.0Z" fill-rule="nonzero"/><path fill="#b3cefb" clip-path="url(#id_0)" d="M677.0 263.0L675.0 263.0L675.0 263.0L677.0 263.0Z" fill-rule="nonzero"/><path stroke="#000000" stroke-width="2.0" stroke-linecap="butt" stroke-opacity="0.0" clip-path="url(#id_0)" d="M785.0 263.0L783.0 263.0L783.0 263.0L785.0 263.0Z" fill-rule="nonzero"/><path fill="#b3cefb" clip-path="url(#id_0)" d="M785.0 263.0L783.0 263.0L783.0 263.0L785.0 263.0Z" fill-rule="nonzero"/><path stroke="#000000" stroke-width="2.0" stroke-linecap="butt" stroke-opacity="0.0" clip-path="url(#id_0)" d="M892.0 263.0L890.0 263.0L890.0 232.0C890.0 231.44771 890.4477 231.0 891.0 231.0L891.0 231.0C891.5523 231.0 892.0 231.44771 892.0 232.0Z" fill-rule="nonzero"/><path fill="#b3cefb" clip-path="url(#id_0)" d="M892.0 263.0L890.0 263.0L890.0 232.0C890.0 231.44771 890.4477 231.0 891.0 231.0L891.0 231.0C891.5523 231.0 892.0 231.44771 892.0 232.0Z" fill-rule="nonzero"/><path stroke="#000000" stroke-width="2.0" stroke-linecap="butt" stroke-opacity="0.0" clip-path="url(#id_0)" d="M144.0 263.0L142.0 263.0L142.0 263.0L144.0 263.0Z" fill-rule="nonzero"/><path fill="#f7b4ae" clip-path="url(#id_0)" d="M144.0 263.0L142.0 263.0L142.0 263.0L144.0 263.0Z" fill-rule="nonzero"/><path stroke="#000000" stroke-width="2.0" stroke-linecap="butt" stroke-opacity="0.0" clip-path="url(#id_0)" d="M251.0 263.0L249.0 263.0L249.0 105.0C249.0 104.447716 249.44771 104.0 250.0 104.0L250.0 104.0C250.55229 104.0 251.0 104.447716 251.0 105.0Z" fill-rule="nonzero"/><path fill="#f7b4ae" clip-path="url(#id_0)" d="M251.0 263.0L249.0 263.0L249.0 105.0C249.0 104.447716 249.44771 104.0 250.0 104.0L250.0 104.0C250.55229 104.0 251.0 104.447716 251.0 105.0Z" fill-rule="nonzero"/><path stroke="#000000" stroke-width="2.0" stroke-linecap="butt" stroke-opacity="0.0" clip-path="url(#id_0)" d="M359.0 263.0L357.0 263.0L357.0 232.0C357.0 231.44771 357.44772 231.0 358.0 231.0L358.0 231.0C358.55228 231.0 359.0 231.44771 359.0 232.0Z" fill-rule="nonzero"/><path fill="#f7b4ae" clip-path="url(#id_0)" d="M359.0 263.0L357.0 263.0L357.0 232.0C357.0 231.44771 357.44772 231.0 358.0 231.0L358.0 231.0C358.55228 231.0 359.0 231.44771 359.0 232.0Z" fill-rule="nonzero"/><path stroke="#000000" stroke-width="2.0" stroke-linecap="butt" stroke-opacity="0.0" clip-path="url(#id_0)" d="M466.0 263.0L464.0 263.0L464.0 232.0C464.0 231.44771 464.44772 231.0 465.0 231.0L465.0 231.0C465.55228 231.0 466.0 231.44771 466.0 232.0Z" fill-rule="nonzero"/><path fill="#f7b4ae" clip-path="url(#id_0)" d="M466.0 263.0L464.0 263.0L464.0 232.0C464.0 231.44771 464.44772 231.0 465.0 231.0L465.0 231.0C465.55228 231.0 466.0 231.44771 466.0 232.0Z" fill-rule="nonzero"/><path stroke="#000000" stroke-width="2.0" stroke-linecap="butt" stroke-opacity="0.0" clip-path="url(#id_0)" d="M574.0 263.0L572.0 263.0L572.0 263.0L574.0 263.0Z" fill-rule="nonzero"/><path fill="#f7b4ae" clip-path="url(#id_0)" d="M574.0 263.0L572.0 263.0L572.0 263.0L574.0 263.0Z" fill-rule="nonzero"/><path stroke="#000000" stroke-width="2.0" stroke-linecap="butt" stroke-opacity="0.0" clip-path="url(#id_0)" d="M681.0 263.0L679.0 263.0L679.0 263.0L681.0 263.0Z" fill-rule="nonzero"/><path fill="#f7b4ae" clip-path="url(#id_0)" d="M681.0 263.0L679.0 263.0L679.0 263.0L681.0 263.0Z" fill-rule="nonzero"/><path stroke="#000000" stroke-width="2.0" stroke-linecap="butt" stroke-opacity="0.0" clip-path="url(#id_0)" d="M789.0 263.0L787.0 263.0L787.0 263.0L789.0 263.0Z" fill-rule="nonzero"/><path fill="#f7b4ae" clip-path="url(#id_0)" d="M789.0 263.0L787.0 263.0L787.0 263.0L789.0 263.0Z" fill-rule="nonzero"/><path stroke="#000000" stroke-width="2.0" stroke-linecap="butt" stroke-opacity="0.0" clip-path="url(#id_0)" d="M896.0 263.0L894.0 263.0L894.0 232.0C894.0 231.44771 894.4477 231.0 895.0 231.0L895.0 231.0C895.5523 231.0 896.0 231.44771 896.0 232.0Z" fill-rule="nonzero"/><path fill="#f7b4ae" clip-path="url(#id_0)" d="M896.0 263.0L894.0 263.0L894.0 232.0C894.0 231.44771 894.4477 231.0 895.0 231.0L895.0 231.0C895.5523 231.0 896.0 231.44771 896.0 232.0Z" fill-rule="nonzero"/><path stroke="#000000" stroke-width="2.0" stroke-linecap="butt" stroke-opacity="0.0" clip-path="url(#id_0)" d="M148.0 263.0L146.0 263.0L146.0 263.0L148.0 263.0Z" fill-rule="nonzero"/><path fill="#fde49b" clip-path="url(#id_0)" d="M148.0 263.0L146.0 263.0L146.0 263.0L148.0 263.0Z" fill-rule="nonzero"/><path stroke="#000000" stroke-width="2.0" stroke-linecap="butt" stroke-opacity="0.0" clip-path="url(#id_0)" d="M255.0 263.0L253.0 263.0L253.0 137.0C253.0 136.44771 253.44771 136.0 254.0 136.0L254.0 136.0C254.55229 136.0 255.0 136.44771 255.0 137.0Z" fill-rule="nonzero"/><path fill="#fde49b" clip-path="url(#id_0)" d="M255.0 263.0L253.0 263.0L253.0 137.0C253.0 136.44771 253.44771 136.0 254.0 136.0L254.0 136.0C254.55229 136.0 255.0 136.44771 255.0 137.0Z" fill-rule="nonzero"/><path stroke="#000000" stroke-width="2.0" stroke-linecap="butt" stroke-opacity="0.0" clip-path="url(#id_0)" d="M363.0 263.0L361.0 263.0L361.0 232.0C361.0 231.44771 361.44772 231.0 362.0 231.0L362.0 231.0C362.55228 231.0 363.0 231.44771 363.0 232.0Z" fill-rule="nonzero"/><path fill="#fde49b" clip-path="url(#id_0)" d="M363.0 263.0L361.0 263.0L361.0 232.0C361.0 231.44771 361.44772 231.0 362.0 231.0L362.0 231.0C362.55228 231.0 363.0 231.44771 363.0 232.0Z" fill-rule="nonzero"/><path stroke="#000000" stroke-width="2.0" stroke-linecap="butt" stroke-opacity="0.0" clip-path="url(#id_0)" d="M470.0 263.0L468.0 263.0L468.0 232.0C468.0 231.44771 468.44772 231.0 469.0 231.0L469.0 231.0C469.55228 231.0 470.0 231.44771 470.0 232.0Z" fill-rule="nonzero"/><path fill="#fde49b" clip-path="url(#id_0)" d="M470.0 263.0L468.0 263.0L468.0 232.0C468.0 231.44771 468.44772 231.0 469.0 231.0L469.0 231.0C469.55228 231.0 470.0 231.44771 470.0 232.0Z" fill-rule="nonzero"/><path stroke="#000000" stroke-width="2.0" stroke-linecap="butt" stroke-opacity="0.0" clip-path="url(#id_0)" d="M578.0 263.0L576.0 263.0L576.0 263.0L578.0 263.0Z" fill-rule="nonzero"/><path fill="#fde49b" clip-path="url(#id_0)" d="M578.0 263.0L576.0 263.0L576.0 263.0L578.0 263.0Z" fill-rule="nonzero"/><path stroke="#000000" stroke-width="2.0" stroke-linecap="butt" stroke-opacity="0.0" clip-path="url(#id_0)" d="M685.0 263.0L683.0 263.0L683.0 263.0L685.0 263.0Z" fill-rule="nonzero"/><path fill="#fde49b" clip-path="url(#id_0)" d="M685.0 263.0L683.0 263.0L683.0 263.0L685.0 263.0Z" fill-rule="nonzero"/><path stroke="#000000" stroke-width="2.0" stroke-linecap="butt" stroke-opacity="0.0" clip-path="url(#id_0)" d="M793.0 263.0L791.0 263.0L791.0 263.0L793.0 263.0Z" fill-rule="nonzero"/><path fill="#fde49b" clip-path="url(#id_0)" d="M793.0 263.0L791.0 263.0L791.0 263.0L793.0 263.0Z" fill-rule="nonzero"/><path stroke="#000000" stroke-width="2.0" stroke-linecap="butt" stroke-opacity="0.0" clip-path="url(#id_0)" d="M900.0 263.0L898.0 263.0L898.0 200.0C898.0 199.44771 898.4477 199.0 899.0 199.0L899.0 199.0C899.5523 199.0 900.0 199.44771 900.0 200.0Z" fill-rule="nonzero"/><path fill="#fde49b" clip-path="url(#id_0)" d="M900.0 263.0L898.0 263.0L898.0 200.0C898.0 199.44771 898.4477 199.0 899.0 199.0L899.0 199.0C899.5523 199.0 900.0 199.44771 900.0 200.0Z" fill-rule="nonzero"/><path stroke="#000000" stroke-width="2.0" stroke-linecap="butt" stroke-opacity="0.0" clip-path="url(#id_0)" d="M152.0 263.0L150.0 263.0L150.0 263.0L152.0 263.0Z" fill-rule="nonzero"/><path fill="#aedcba" clip-path="url(#id_0)" d="M152.0 263.0L150.0 263.0L150.0 263.0L152.0 263.0Z" fill-rule="nonzero"/><path stroke="#000000" stroke-width="2.0" stroke-linecap="butt" stroke-opacity="0.0" clip-path="url(#id_0)" d="M259.0 263.0L257.0 263.0L257.0 420.0C257.0 420.55228 257.44772 421.0 258.0 421.0L258.0 421.0C258.55228 421.0 259.0 420.55228 259.0 420.0Z" fill-rule="nonzero"/><path fill="#aedcba" clip-path="url(#id_0)" d="M259.0 263.0L257.0 263.0L257.0 420.0C257.0 420.55228 257.44772 421.0 258.0 421.0L258.0 421.0C258.55228 421.0 259.0 420.55228 259.0 420.0Z" fill-rule="nonzero"/><path stroke="#000000" stroke-width="2.0" stroke-linecap="butt" stroke-opacity="0.0" clip-path="url(#id_0)" d="M367.0 263.0L365.0 263.0L365.0 263.0L367.0 263.0Z" fill-rule="nonzero"/><path fill="#aedcba" clip-path="url(#id_0)" d="M367.0 263.0L365.0 263.0L365.0 263.0L367.0 263.0Z" fill-rule="nonzero"/><path stroke="#000000" stroke-width="2.0" stroke-linecap="butt" stroke-opacity="0.0" clip-path="url(#id_0)" d="M474.0 263.0L472.0 263.0L472.0 200.0C472.0 199.44771 472.44772 199.0 473.0 199.0L473.0 199.0C473.55228 199.0 474.0 199.44771 474.0 200.0Z" fill-rule="nonzero"/><path fill="#aedcba" clip-path="url(#id_0)" d="M474.0 263.0L472.0 263.0L472.0 200.0C472.0 199.44771 472.44772 199.0 473.0 199.0L473.0 199.0C473.55228 199.0 474.0 199.44771 474.0 200.0Z" fill-rule="nonzero"/><path stroke="#000000" stroke-width="2.0" stroke-linecap="butt" stroke-opacity="0.0" clip-path="url(#id_0)" d="M582.0 263.0L580.0 263.0L580.0 263.0L582.0 263.0Z" fill-rule="nonzero"/><path fill="#aedcba" clip-path="url(#id_0)" d="M582.0 263.0L580.0 263.0L580.0 263.0L582.0 263.0Z" fill-rule="nonzero"/><path stroke="#000000" stroke-width="2.0" stroke-linecap="butt" stroke-opacity="0.0" clip-path="url(#id_0)" d="M689.0 263.0L687.0 263.0L687.0 263.0L689.0 263.0Z" fill-rule="nonzero"/><path fill="#aedcba" clip-path="url(#id_0)" d="M689.0 263.0L687.0 263.0L687.0 263.0L689.0 263.0Z" fill-rule="nonzero"/><path stroke="#000000" stroke-width="2.0" stroke-linecap="butt" stroke-opacity="0.0" clip-path="url(#id_0)" d="M797.0 263.0L795.0 263.0L795.0 263.0L797.0 263.0Z" fill-rule="nonzero"/><path fill="#aedcba" clip-path="url(#id_0)" d="M797.0 263.0L795.0 263.0L795.0 263.0L797.0 263.0Z" fill-rule="nonzero"/><path stroke="#000000" stroke-width="2.0" stroke-linecap="butt" stroke-opacity="0.0" clip-path="url(#id_0)" d="M904.0 263.0L902.0 263.0L902.0 232.0C902.0 231.44771 902.4477 231.0 903.0 231.0L903.0 231.0C903.5523 231.0 904.0 231.44771 904.0 232.0Z" fill-rule="nonzero"/><path fill="#aedcba" clip-path="url(#id_0)" d="M904.0 263.0L902.0 263.0L902.0 232.0C902.0 231.44771 902.4477 231.0 903.0 231.0L903.0 231.0C903.5523 231.0 904.0 231.44771 904.0 232.0Z" fill-rule="nonzero"/><path stroke="#000000" stroke-width="2.0" stroke-linecap="butt" stroke-opacity="0.0" clip-path="url(#id_0)" d="M156.0 263.0L154.0 263.0L154.0 263.0L156.0 263.0Z" fill-rule="nonzero"/><path fill="#ffc599" clip-path="url(#id_0)" d="M156.0 263.0L154.0 263.0L154.0 263.0L156.0 263.0Z" fill-rule="nonzero"/><path stroke="#000000" stroke-width="2.0" stroke-linecap="butt" stroke-opacity="0.0" clip-path="url(#id_0)" d="M263.0 263.0L261.0 263.0L261.0 137.0C261.0 136.44771 261.44772 136.0 262.0 136.0L262.0 136.0C262.55228 136.0 263.0 136.44771 263.0 137.0Z" fill-rule="nonzero"/><path fill="#ffc599" clip-path="url(#id_0)" d="M263.0 263.0L261.0 263.0L261.0 137.0C261.0 136.44771 261.44772 136.0 262.0 136.0L262.0 136.0C262.55228 136.0 263.0 136.44771 263.0 137.0Z" fill-rule="nonzero"/><path stroke="#000000" stroke-width="2.0" stroke-linecap="butt" stroke-opacity="0.0" clip-path="url(#id_0)" d="M371.0 263.0L369.0 263.0L369.0 232.0C369.0 231.44771 369.44772 231.0 370.0 231.0L370.0 231.0C370.55228 231.0 371.0 231.44771 371.0 232.0Z" fill-rule="nonzero"/><path fill="#ffc599" clip-path="url(#id_0)" d="M371.0 263.0L369.0 263.0L369.0 232.0C369.0 231.44771 369.44772 231.0 370.0 231.0L370.0 231.0C370.55228 231.0 371.0 231.44771 371.0 232.0Z" fill-rule="nonzero"/><path stroke="#000000" stroke-width="2.0" stroke-linecap="butt" stroke-opacity="0.0" clip-path="url(#id_0)" d="M478.0 263.0L476.0 263.0L476.0 232.0C476.0 231.44771 476.44772 231.0 477.0 231.0L477.0 231.0C477.55228 231.0 478.0 231.44771 478.0 232.0Z" fill-rule="nonzero"/><path fill="#ffc599" clip-path="url(#id_0)" d="M478.0 263.0L476.0 263.0L476.0 232.0C476.0 231.44771 476.44772 231.0 477.0 231.0L477.0 231.0C477.55228 231.0 478.0 231.44771 478.0 232.0Z" fill-rule="nonzero"/><path stroke="#000000" stroke-width="2.0" stroke-linecap="butt" stroke-opacity="0.0" clip-path="url(#id_0)" d="M586.0 263.0L584.0 263.0L584.0 263.0L586.0 263.0Z" fill-rule="nonzero"/><path fill="#ffc599" clip-path="url(#id_0)" d="M586.0 263.0L584.0 263.0L584.0 263.0L586.0 263.0Z" fill-rule="nonzero"/><path stroke="#000000" stroke-width="2.0" stroke-linecap="butt" stroke-opacity="0.0" clip-path="url(#id_0)" d="M693.0 263.0L691.0 263.0L691.0 263.0L693.0 263.0Z" fill-rule="nonzero"/><path fill="#ffc599" clip-path="url(#id_0)" d="M693.0 263.0L691.0 263.0L691.0 263.0L693.0 263.0Z" fill-rule="nonzero"/><path stroke="#000000" stroke-width="2.0" stroke-linecap="butt" stroke-opacity="0.0" clip-path="url(#id_0)" d="M801.0 263.0L799.0 263.0L799.0 263.0L801.0 263.0Z" fill-rule="nonzero"/><path fill="#ffc599" clip-path="url(#id_0)" d="M801.0 263.0L799.0 263.0L799.0 263.0L801.0 263.0Z" fill-rule="nonzero"/><path stroke="#000000" stroke-width="2.0" stroke-linecap="butt" stroke-opacity="0.0" clip-path="url(#id_0)" d="M908.0 263.0L906.0 263.0L906.0 294.0C906.0 294.55228 906.4477 295.0 907.0 295.0L907.0 295.0C907.5523 295.0 908.0 294.55228 908.0 294.0Z" fill-rule="nonzero"/><path fill="#ffc599" clip-path="url(#id_0)" d="M908.0 263.0L906.0 263.0L906.0 294.0C906.0 294.55228 906.4477 295.0 907.0 295.0L907.0 295.0C907.5523 295.0 908.0 294.55228 908.0 294.0Z" fill-rule="nonzero"/><path stroke="#000000" stroke-width="2.0" stroke-linecap="butt" stroke-opacity="0.0" clip-path="url(#id_0)" d="M160.0 263.0L158.0 263.0L158.0 263.0L160.0 263.0Z" fill-rule="nonzero"/><path fill="#b5e5e8" clip-path="url(#id_0)" d="M160.0 263.0L158.0 263.0L158.0 263.0L160.0 263.0Z" fill-rule="nonzero"/><path stroke="#000000" stroke-width="2.0" stroke-linecap="butt" stroke-opacity="0.0" clip-path="url(#id_0)" d="M267.0 263.0L265.0 263.0L265.0 169.0C265.0 168.44771 265.44772 168.0 266.0 168.0L266.0 168.0C266.55228 168.0 267.0 168.44771 267.0 169.0Z" fill-rule="nonzero"/><path fill="#b5e5e8" clip-path="url(#id_0)" d="M267.0 263.0L265.0 263.0L265.0 169.0C265.0 168.44771 265.44772 168.0 266.0 168.0L266.0 168.0C266.55228 168.0 267.0 168.44771 267.0 169.0Z" fill-rule="nonzero"/><path stroke="#000000" stroke-width="2.0" stroke-linecap="butt" stroke-opacity="0.0" clip-path="url(#id_0)" d="M375.0 263.0L373.0 263.0L373.0 263.0L375.0 263.0Z" fill-rule="nonzero"/><path fill="#b5e5e8" clip-path="url(#id_0)" d="M375.0 263.0L373.0 263.0L373.0 263.0L375.0 263.0Z" fill-rule="nonzero"/><path stroke="#000000" stroke-width="2.0" stroke-linecap="butt" stroke-opacity="0.0" clip-path="url(#id_0)" d="M482.0 263.0L480.0 263.0L480.0 232.0C480.0 231.44771 480.44772 231.0 481.0 231.0L481.0 231.0C481.55228 231.0 482.0 231.44771 482.0 232.0Z" fill-rule="nonzero"/><path fill="#b5e5e8" clip-path="url(#id_0)" d="M482.0 263.0L480.0 263.0L480.0 232.0C480.0 231.44771 480.44772 231.0 481.0 231.0L481.0 231.0C481.55228 231.0 482.0 231.44771 482.0 232.0Z" fill-rule="nonzero"/><path stroke="#000000" stroke-width="2.0" stroke-linecap="butt" stroke-opacity="0.0" clip-path="url(#id_0)" d="M590.0 263.0L588.0 263.0L588.0 263.0L590.0 263.0Z" fill-rule="nonzero"/><path fill="#b5e5e8" clip-path="url(#id_0)" d="M590.0 263.0L588.0 263.0L588.0 263.0L590.0 263.0Z" fill-rule="nonzero"/><path stroke="#000000" stroke-width="2.0" stroke-linecap="butt" stroke-opacity="0.0" clip-path="url(#id_0)" d="M697.0 263.0L695.0 263.0L695.0 263.0L697.0 263.0Z" fill-rule="nonzero"/><path fill="#b5e5e8" clip-path="url(#id_0)" d="M697.0 263.0L695.0 263.0L695.0 263.0L697.0 263.0Z" fill-rule="nonzero"/><path stroke="#000000" stroke-width="2.0" stroke-linecap="butt" stroke-opacity="0.0" clip-path="url(#id_0)" d="M805.0 263.0L803.0 263.0L803.0 263.0L805.0 263.0Z" fill-rule="nonzero"/><path fill="#b5e5e8" clip-path="url(#id_0)" d="M805.0 263.0L803.0 263.0L803.0 263.0L805.0 263.0Z" fill-rule="nonzero"/><path stroke="#000000" stroke-width="2.0" stroke-linecap="butt" stroke-opacity="0.0" clip-path="url(#id_0)" d="M912.0 263.0L910.0 263.0L910.0 294.0C910.0 294.55228 910.4477 295.0 911.0 295.0L911.0 295.0C911.5523 295.0 912.0 294.55228 912.0 294.0Z" fill-rule="nonzero"/><path fill="#b5e5e8" clip-path="url(#id_0)" d="M912.0 263.0L910.0 263.0L910.0 294.0C910.0 294.55228 910.4477 295.0 911.0 295.0L911.0 295.0C911.5523 295.0 912.0 294.55228 912.0 294.0Z" fill-rule="nonzero"/><path fill="#f3f3f3" d="M35.275 454.52188L35.275 453.45938L38.525 453.45938L38.525 454.52188L35.275 454.52188ZM44.86875 450.61563L43.821877 450.69376Q43.68125 450.06876 43.43125 449.7875Q42.99375 449.33438 42.36875 449.33438Q41.86875 449.33438 41.478127 449.61563Q40.99375 449.99063 40.696877 450.69376Q40.415627 451.38126 40.4 452.6625Q40.775 452.08438 41.321877 451.80313Q41.884377 451.52188 42.49375 451.52188Q43.540627 451.52188 44.275 452.30313Q45.025 453.08438 45.025 454.30313Q45.025 455.11563 44.665627 455.81876Q44.321877 456.50626 43.7125 456.88126Q43.103127 457.24063 42.3375 457.24063Q41.009377 457.24063 40.18125 456.27188Q39.353127 455.30313 39.353127 453.08438Q39.353127 450.58438 40.275 449.45938Q41.071877 448.475 42.43125 448.475Q43.446877 448.475 44.0875 449.05313Q44.74375 449.61563 44.86875 450.61563ZM40.571877 454.31876Q40.571877 454.86563 40.790627 455.36563Q41.025 455.85 41.43125 456.11563Q41.853127 456.38126 42.321877 456.38126Q42.978127 456.38126 43.4625 455.85Q43.946877 455.30313 43.946877 454.38126Q43.946877 453.49063 43.4625 452.975Q42.99375 452.45938 42.275 452.45938Q41.55625 452.45938 41.05625 452.975Q40.571877 453.49063 40.571877 454.31876Z" fill-rule="nonzero"/><path fill="#f3f3f3" d="M35.275 391.08853L35.275 390.02603L38.525 390.02603L38.525 391.08853L35.275 391.08853ZM42.775 393.66666L42.775 391.60416L39.05625 391.60416L39.05625 390.6354L42.978127 385.0729L43.8375 385.0729L43.8375 390.6354L44.99375 390.6354L44.99375 391.60416L43.8375 391.60416L43.8375 393.66666L42.775 393.66666ZM42.775 390.6354L42.775 386.77603L40.0875 390.6354L42.775 390.6354Z" fill-rule="nonzero"/><path fill="#f3f3f3" d="M35.275 327.6552L35.275 326.5927L38.525 326.5927L38.525 327.6552L35.275 327.6552ZM44.946877 329.2177L44.946877 330.23334L39.259377 330.23334Q39.259377 329.85834 39.384377 329.49896Q39.603127 328.92084 40.071877 328.35834Q40.55625 327.79584 41.4625 327.06146Q42.86875 325.9052 43.353127 325.23334Q43.853127 324.56146 43.853127 323.9677Q43.853127 323.3427 43.4 322.92084Q42.946877 322.48334 42.228127 322.48334Q41.4625 322.48334 41.009377 322.93646Q40.55625 323.3896 40.540627 324.2021L39.4625 324.0927Q39.571877 322.87396 40.290627 322.24896Q41.025 321.60834 42.259377 321.60834Q43.49375 321.60834 44.2125 322.29584Q44.93125 322.98334 44.93125 323.99896Q44.93125 324.5146 44.7125 325.0146Q44.509377 325.49896 44.009377 326.06146Q43.525 326.60834 42.4 327.56146Q41.446877 328.35834 41.165627 328.6552Q40.9 328.93646 40.728127 329.2177L44.946877 329.2177Z" fill-rule="nonzero"/><path fill="#f3f3f3" d="M39.4 262.5656Q39.4 261.03436 39.7125 260.1125Q40.025 259.175 40.634377 258.675Q41.259377 258.175 42.196877 258.175Q42.884377 258.175 43.4 258.45624Q43.93125 258.7375 44.275 259.26874Q44.61875 259.78436 44.80625 260.53436Q44.99375 261.28436 44.99375 262.5656Q44.99375 264.08124 44.68125 265.0031Q44.384377 265.925 43.759377 266.4406Q43.15 266.9406 42.196877 266.9406Q40.9625 266.9406 40.24375 266.05Q39.4 264.9875 39.4 262.5656ZM40.478127 262.5656Q40.478127 264.675 40.978127 265.3781Q41.478127 266.08124 42.196877 266.08124Q42.93125 266.08124 43.415627 265.3781Q43.915627 264.675 43.915627 262.5656Q43.915627 260.4406 43.415627 259.7531Q42.93125 259.05 42.18125 259.05Q41.4625 259.05 41.025 259.65936Q40.478127 260.4406 40.478127 262.5656Z" fill-rule="nonzero"/><path fill="#f3f3f3" d="M44.946877 202.35104L44.946877 203.36667L39.259377 203.36667Q39.259377 202.99167 39.384377 202.6323Q39.603127 202.05417 40.071877 201.49167Q40.55625 200.92917 41.4625 200.1948Q42.86875 199.03854 43.353127 198.36667Q43.853127 197.6948 43.853127 197.10104Q43.853127 196.47604 43.4 196.05417Q42.946877 195.61667 42.228127 195.61667Q41.4625 195.61667 41.009377 196.0698Q40.55625 196.52292 40.540627 197.33542L39.4625 197.22604Q39.571877 196.0073 40.290627 195.3823Q41.025 194.74167 42.259377 194.74167Q43.49375 194.74167 44.2125 195.42917Q44.93125 196.11667 44.93125 197.1323Q44.93125 197.64792 44.7125 198.14792Q44.509377 198.6323 44.009377 199.1948Q43.525 199.74167 42.4 200.6948Q41.446877 201.49167 41.165627 201.78854Q40.9 202.0698 40.728127 202.35104L44.946877 202.35104Z" fill-rule="nonzero"/><path fill="#f3f3f3" d="M42.775 139.93333L42.775 137.87083L39.05625 137.87083L39.05625 136.90208L42.978127 131.33958L43.8375 131.33958L43.8375 136.90208L44.99375 136.90208L44.99375 137.87083L43.8375 137.87083L43.8375 139.93333L42.775 139.93333ZM42.775 136.90208L42.775 133.04271L40.0875 136.90208L42.775 136.90208Z" fill-rule="nonzero"/><path fill="#f3f3f3" d="M44.86875 70.015625L43.821877 70.09375Q43.68125 69.46875 43.43125 69.1875Q42.99375 68.734375 42.36875 68.734375Q41.86875 68.734375 41.478127 69.015625Q40.99375 69.390625 40.696877 70.09375Q40.415627 70.78125 40.4 72.0625Q40.775 71.484375 41.321877 71.203125Q41.884377 70.921875 42.49375 70.921875Q43.540627 70.921875 44.275 71.703125Q45.025 72.484375 45.025 73.703125Q45.025 74.515625 44.665627 75.21875Q44.321877 75.90625 43.7125 76.28125Q43.103127 76.640625 42.3375 76.640625Q41.009377 76.640625 40.18125 75.671875Q39.353127 74.703125 39.353127 72.484375Q39.353127 69.984375 40.275 68.859375Q41.071877 67.875 42.43125 67.875Q43.446877 67.875 44.0875 68.453125Q44.74375 69.015625 44.86875 70.015625ZM40.571877 73.71875Q40.571877 74.265625 40.790627 74.765625Q41.025 75.25 41.43125 75.515625Q41.853127 75.78125 42.321877 75.78125Q42.978127 75.78125 43.4625 75.25Q43.946877 74.703125 43.946877 73.78125Q43.946877 72.890625 43.4625 72.375Q42.99375 71.859375 42.275 71.859375Q41.55625 71.859375 41.05625 72.375Q40.571877 72.890625 40.571877 73.71875Z" fill-rule="nonzero"/><path fill="#f3f3f3" d="M123.07148 467.08438L124.19648 467.38126Q123.837105 468.77188 122.91523 469.50626Q121.993355 470.24063 120.649605 470.24063Q119.25898 470.24063 118.38398 469.67813Q117.50898 469.11563 117.055855 468.05313Q116.60273 466.975 116.60273 465.74063Q116.60273 464.39688 117.118355 463.39688Q117.63398 462.39688 118.57148 461.88126Q119.524605 461.36563 120.66523 461.36563Q121.94648 461.36563 122.82148 462.02188Q123.712105 462.67813 124.055855 463.86563L122.930855 464.13126Q122.63398 463.19376 122.055855 462.77188Q121.493355 462.33438 120.63398 462.33438Q119.649605 462.33438 118.97773 462.81876Q118.32148 463.2875 118.04023 464.08438Q117.774605 464.88126 117.774605 465.74063Q117.774605 466.83438 118.087105 467.64688Q118.41523 468.45938 119.087105 468.86563Q119.75898 469.27188 120.555855 469.27188Q121.50898 469.27188 122.16523 468.725Q122.837105 468.17813 123.07148 467.08438ZM125.555855 467.33438L126.618355 467.24063Q126.69648 467.89688 126.97773 468.30313Q127.25898 468.70938 127.837105 468.975Q128.43085 469.225 129.16522 469.225Q129.80585 469.225 130.30585 469.0375Q130.80585 468.83438 131.04022 468.50626Q131.29022 468.1625 131.29022 467.77188Q131.29022 467.36563 131.05585 467.06876Q130.82147 466.75626 130.29022 466.55313Q129.93085 466.4125 128.74335 466.13126Q127.57148 465.85 127.10273 465.6Q126.47773 465.27188 126.180855 464.80313Q125.88398 464.31876 125.88398 463.725Q125.88398 463.08438 126.243355 462.52188Q126.618355 461.94376 127.32148 461.6625Q128.04022 461.36563 128.8996 461.36563Q129.85272 461.36563 130.5871 461.67813Q131.32147 461.975 131.7121 462.58438Q132.10272 463.17813 132.13397 463.92813L131.04022 464.00626Q130.94647 463.19376 130.43085 462.7875Q129.93085 462.36563 128.94647 462.36563Q127.91523 462.36563 127.44648 462.74063Q126.97773 463.11563 126.97773 463.64688Q126.97773 464.11563 127.305855 464.4125Q127.63398 464.70938 129.00897 465.02188Q130.3996 465.33438 130.91522 465.56876Q131.66522 465.92813 132.0246 466.45938Q132.38397 466.975 132.38397 467.67813Q132.38397 468.36563 131.99335 468.975Q131.60272 469.56876 130.86835 469.9125Q130.13397 470.24063 129.2121 470.24063Q128.04022 470.24063 127.243355 469.9125Q126.462105 469.56876 126.00898 468.88126Q125.57148 468.19376 125.555855 467.33438Z" fill-rule="nonzero"/><path fill="#f3f3f3" d="M224.49973 470.1L224.49973 461.50626L227.46848 461.50626Q228.46848 461.50626 228.99973 461.63126Q229.7341 461.80313 230.24973 462.24063Q230.93723 462.81876 231.26535 463.725Q231.6091 464.61563 231.6091 465.75626Q231.6091 466.74063 231.37473 467.49063Q231.15598 468.24063 230.7966 468.74063Q230.43723 469.24063 229.99973 469.52188Q229.57785 469.80313 228.9841 469.95938Q228.39035 470.1 227.6091 470.1L224.49973 470.1ZM225.64035 469.08438L227.46848 469.08438Q228.32785 469.08438 228.81223 468.92813Q229.2966 468.77188 229.57785 468.475Q229.9841 468.08438 230.20285 467.39688Q230.43723 466.70938 230.43723 465.74063Q230.43723 464.39688 229.9841 463.67813Q229.5466 462.94376 228.9216 462.69376Q228.45285 462.52188 227.45285 462.52188L225.64035 462.52188L225.64035 469.08438ZM233.53098 470.1L233.53098 461.50626L239.7341 461.50626L239.7341 462.52188L234.6716 462.52188L234.6716 465.14688L239.4216 465.14688L239.4216 466.1625L234.6716 466.1625L234.6716 469.08438L239.93723 469.08438L239.93723 470.1L233.53098 470.1Z" fill-rule="nonzero"/><path fill="#f3f3f3" d="M332.59982 470.1L332.59982 461.50626L338.80295 461.50626L338.80295 462.52188L333.74045 462.52188L333.74045 465.14688L338.49045 465.14688L338.49045 466.1625L333.74045 466.1625L333.74045 469.08438L339.00607 469.08438L339.00607 470.1L332.59982 470.1ZM340.19357 467.33438L341.25607 467.24063Q341.3342 467.89688 341.61545 468.30313Q341.8967 468.70938 342.47482 468.975Q343.06857 469.225 343.80295 469.225Q344.44357 469.225 344.94357 469.0375Q345.44357 468.83438 345.67795 468.50626Q345.92795 468.1625 345.92795 467.77188Q345.92795 467.36563 345.69357 467.06876Q345.4592 466.75626 344.92795 466.55313Q344.56857 466.4125 343.38107 466.13126Q342.2092 465.85 341.74045 465.6Q341.11545 465.27188 340.81857 464.80313Q340.5217 464.31876 340.5217 463.725Q340.5217 463.08438 340.88107 462.52188Q341.25607 461.94376 341.9592 461.6625Q342.67795 461.36563 343.53732 461.36563Q344.49045 461.36563 345.22482 461.67813Q345.9592 461.975 346.34982 462.58438Q346.74045 463.17813 346.7717 463.92813L345.67795 464.00626Q345.5842 463.19376 345.06857 462.7875Q344.56857 462.36563 343.5842 462.36563Q342.55295 462.36563 342.0842 462.74063Q341.61545 463.11563 341.61545 463.64688Q341.61545 464.11563 341.94357 464.4125Q342.2717 464.70938 343.6467 465.02188Q345.03732 465.33438 345.55295 465.56876Q346.30295 465.92813 346.66232 466.45938Q347.0217 466.975 347.0217 467.67813Q347.0217 468.36563 346.63107 468.975Q346.24045 469.56876 345.50607 469.9125Q344.7717 470.24063 343.84982 470.24063Q342.67795 470.24063 341.88107 469.9125Q341.09982 469.56876 340.6467 468.88126Q340.2092 468.19376 340.19357 467.33438Z" fill-rule="nonzero"/><path fill="#f3f3f3" d="M440.19995 470.1L440.19995 461.50626L445.99683 461.50626L445.99683 462.52188L441.34058 462.52188L441.34058 465.17813L445.37183 465.17813L445.37183 466.19376L441.34058 466.19376L441.34058 470.1L440.19995 470.1ZM447.15308 470.1L447.15308 461.50626L450.96558 461.50626Q452.12183 461.50626 452.71558 461.74063Q453.30933 461.975 453.6687 462.56876Q454.02808 463.14688 454.02808 463.85Q454.02808 464.77188 453.43433 465.39688Q452.84058 466.02188 451.6062 466.19376Q452.05933 466.4125 452.2937 466.61563Q452.7937 467.06876 453.2312 467.75626L454.7312 470.1L453.2937 470.1L452.1687 468.31876Q451.6687 467.5375 451.34058 467.13126Q451.02808 466.725 450.76245 466.56876Q450.51245 466.39688 450.24683 466.31876Q450.05933 466.2875 449.62183 466.2875L448.2937 466.2875L448.2937 470.1L447.15308 470.1ZM448.2937 465.30313L450.74683 465.30313Q451.51245 465.30313 451.94995 465.14688Q452.40308 464.975 452.62183 464.63126Q452.8562 464.27188 452.8562 463.85Q452.8562 463.24063 452.40308 462.85Q451.96558 462.45938 451.01245 462.45938L448.2937 462.45938L448.2937 465.30313Z" fill-rule="nonzero"/><path fill="#f3f3f3" d="M550.9094 470.1L550.9094 461.50626L552.0344 461.50626L552.0344 470.1L550.9094 470.1ZM555.8938 470.1L555.8938 462.52188L553.0657 462.52188L553.0657 461.50626L559.8782 461.50626L559.8782 462.52188L557.0344 462.52188L557.0344 470.1L555.8938 470.1Z" fill-rule="nonzero"/><path fill="#f3f3f3" d="M655.27515 470.1L655.27515 461.50626L656.4314 461.50626L660.947 468.25626L660.947 461.50626L662.0408 461.50626L662.0408 470.1L660.8689 470.1L656.3533 463.35L656.3533 470.1L655.27515 470.1ZM664.2283 470.1L664.2283 461.50626L665.3689 461.50626L665.3689 469.08438L669.6033 469.08438L669.6033 470.1L664.2283 470.1Z" fill-rule="nonzero"/><path fill="#f3f3f3" d="M761.8597 470.1L761.8597 461.50626L765.6722 461.50626Q766.8284 461.50626 767.4222 461.74063Q768.0159 461.975 768.3753 462.56876Q768.7347 463.14688 768.7347 463.85Q768.7347 464.77188 768.1409 465.39688Q767.5472 466.02188 766.3128 466.19376Q766.7659 466.4125 767.0003 466.61563Q767.5003 467.06876 767.9378 467.75626L769.4378 470.1L768.0003 470.1L766.8753 468.31876Q766.3753 467.5375 766.0472 467.13126Q765.7347 466.725 765.46906 466.56876Q765.21906 466.39688 764.9534 466.31876Q764.7659 466.2875 764.3284 466.2875L763.0003 466.2875L763.0003 470.1L761.8597 470.1ZM763.0003 465.30313L765.4534 465.30313Q766.21906 465.30313 766.65656 465.14688Q767.1097 464.975 767.3284 464.63126Q767.5628 464.27188 767.5628 463.85Q767.5628 463.24063 767.1097 462.85Q766.6722 462.45938 765.71906 462.45938L763.0003 462.45938L763.0003 465.30313ZM776.4847 461.50626L777.6253 461.50626L777.6253 466.475Q777.6253 467.77188 777.3284 468.5375Q777.03156 469.2875 776.2659 469.77188Q775.5003 470.24063 774.2659 470.24063Q773.0628 470.24063 772.28156 469.83438Q771.5159 469.4125 771.1878 468.63126Q770.8597 467.83438 770.8597 466.475L770.8597 461.50626L772.0003 461.50626L772.0003 466.45938Q772.0003 467.58438 772.2034 468.11563Q772.4222 468.64688 772.9222 468.94376Q773.4378 469.225 774.1722 469.225Q775.4222 469.225 775.9534 468.6625Q776.4847 468.08438 776.4847 466.45938L776.4847 461.50626Z" fill-rule="nonzero"/><path fill="#f3f3f3" d="M869.7254 470.1L869.7254 469.0375L874.13165 463.5375Q874.6004 462.95938 875.0223 462.52188L870.2254 462.52188L870.2254 461.50626L876.38165 461.50626L876.38165 462.52188L871.5535 468.475L871.0379 469.08438L876.5223 469.08438L876.5223 470.1L869.7254 470.1ZM877.4598 470.1L877.4598 461.50626L878.5848 461.50626L878.5848 465.0375L883.0535 465.0375L883.0535 461.50626L884.19415 461.50626L884.19415 470.1L883.0535 470.1L883.0535 466.05313L878.5848 466.05313L878.5848 470.1L877.4598 470.1Z" fill-rule="nonzero"/><path fill="#f3f3f3" d="M26.446875 43.9L26.446875 29.587502L31.8375 29.587502Q33.275 29.587502 34.025 29.712502Q35.071877 29.900002 35.790627 30.400002Q36.509377 30.884377 36.93125 31.775002Q37.36875 32.665627 37.36875 33.728127Q37.36875 35.55625 36.196877 36.821877Q35.040627 38.071877 32.009377 38.071877L28.3375 38.071877L28.3375 43.9L26.446875 43.9ZM28.3375 36.384377L32.040627 36.384377Q33.86875 36.384377 34.634377 35.7125Q35.415627 35.025 35.415627 33.775Q35.415627 32.884377 34.9625 32.24375Q34.509377 31.603127 33.775 31.400002Q33.290627 31.275002 31.99375 31.275002L28.3375 31.275002L28.3375 36.384377ZM46.321877 40.55625L48.134377 40.790627Q47.7125 42.36875 46.540627 43.259377Q45.384377 44.134377 43.571877 44.134377Q41.30625 44.134377 39.9625 42.74375Q38.634377 41.3375 38.634377 38.80625Q38.634377 36.18125 39.978127 34.74375Q41.321877 33.290627 43.478127 33.290627Q45.55625 33.290627 46.86875 34.7125Q48.196877 36.11875 48.196877 38.696877Q48.196877 38.853127 48.18125 39.165627L40.446877 39.165627Q40.540627 40.86875 41.415627 41.775Q42.290627 42.68125 43.5875 42.68125Q44.55625 42.68125 45.228127 42.18125Q45.915627 41.665627 46.321877 40.55625ZM40.540627 37.7125L46.3375 37.7125Q46.228127 36.415627 45.68125 35.759377Q44.8375 34.74375 43.49375 34.74375Q42.290627 34.74375 41.4625 35.55625Q40.634377 36.353127 40.540627 37.7125ZM49.571877 38.7125Q49.571877 35.8375 51.165627 34.446877Q52.509377 33.290627 54.43125 33.290627Q56.571877 33.290627 57.915627 34.696877Q59.275 36.103127 59.275 38.571877Q59.275 40.571877 58.68125 41.728127Q58.0875 42.86875 56.93125 43.509377Q55.790627 44.134377 54.43125 44.134377Q52.24375 44.134377 50.9 42.74375Q49.571877 41.3375 49.571877 38.7125ZM51.36875 38.7125Q51.36875 40.7125 52.228127 41.696877Q53.103127 42.68125 54.43125 42.68125Q55.74375 42.68125 56.603127 41.696877Q57.478127 40.696877 57.478127 38.65Q57.478127 36.728127 56.603127 35.74375Q55.728127 34.74375 54.43125 34.74375Q53.103127 34.74375 52.228127 35.74375Q51.36875 36.728127 51.36875 38.7125ZM61.2125 47.86875L61.2125 33.525L62.821877 33.525L62.821877 34.86875Q63.384377 34.0875 64.0875 33.696877Q64.80625 33.290627 65.82188 33.290627Q67.15 33.290627 68.16563 33.978127Q69.18125 34.665627 69.69688 35.915627Q70.22813 37.15 70.22813 38.634377Q70.22813 40.228127 69.65 41.509377Q69.0875 42.775 67.99375 43.4625Q66.9 44.134377 65.69688 44.134377Q64.82188 44.134377 64.11875 43.759377Q63.43125 43.384377 62.978127 42.821877L62.978127 47.86875L61.2125 47.86875ZM62.80625 38.775Q62.80625 40.775 63.61875 41.728127Q64.43125 42.68125 65.5875 42.68125Q66.75938 42.68125 67.5875 41.696877Q68.43125 40.7125 68.43125 38.61875Q68.43125 36.65 67.60313 35.665627Q66.79063 34.665627 65.66563 34.665627Q64.54063 34.665627 63.665627 35.728127Q62.80625 36.775 62.80625 38.775ZM72.18125 43.9L72.18125 29.587502L73.93125 29.587502L73.93125 43.9L72.18125 43.9ZM83.32188 40.55625L85.13438 40.790627Q84.7125 42.36875 83.54063 43.259377Q82.38438 44.134377 80.57188 44.134377Q78.30625 44.134377 76.9625 42.74375Q75.63438 41.3375 75.63438 38.80625Q75.63438 36.18125 76.97813 34.74375Q78.32188 33.290627 80.47813 33.290627Q82.55625 33.290627 83.86875 34.7125Q85.19688 36.11875 85.19688 38.696877Q85.19688 38.853127 85.18125 39.165627L77.44688 39.165627Q77.54063 40.86875 78.41563 41.775Q79.29063 42.68125 80.5875 42.68125Q81.55625 42.68125 82.22813 42.18125Q82.91563 41.665627 83.32188 40.55625ZM77.54063 37.7125L83.3375 37.7125Q83.22813 36.415627 82.68125 35.759377Q81.8375 34.74375 80.49375 34.74375Q79.29063 34.74375 78.4625 35.55625Q77.63438 36.353127 77.54063 37.7125ZM95.13438 43.9L91.9625 33.525L93.775 33.525L95.43125 39.509377L96.04063 41.74375Q96.0875 41.571877 96.57188 39.603127L98.22813 33.525L100.04063 33.525L101.5875 39.540627L102.10313 41.525L102.69688 39.525L104.47813 33.525L106.18125 33.525L102.94688 43.9L101.11875 43.9L99.4625 37.68125L99.07188 35.915627L96.9625 43.9L95.13438 43.9ZM106.57188 38.7125Q106.57188 35.8375 108.16563 34.446877Q109.50938 33.290627 111.43125 33.290627Q113.57188 33.290627 114.91563 34.696877Q116.275 36.103127 116.275 38.571877Q116.275 40.571877 115.68125 41.728127Q115.0875 42.86875 113.93125 43.509377Q112.79063 44.134377 111.43125 44.134377Q109.24375 44.134377 107.9 42.74375Q106.57188 41.3375 106.57188 38.7125ZM108.36875 38.7125Q108.36875 40.7125 109.22813 41.696877Q110.10313 42.68125 111.43125 42.68125Q112.74375 42.68125 113.60313 41.696877Q114.47813 40.696877 114.47813 38.65Q114.47813 36.728127 113.60313 35.74375Q112.72813 34.74375 111.43125 34.74375Q110.10313 34.74375 109.22813 35.74375Q108.36875 36.728127 108.36875 38.7125ZM118.19688 43.9L118.19688 33.525L119.775 33.525L119.775 35.103127Q120.38438 33.99375 120.9 33.65Q121.41563 33.290627 122.025 33.290627Q122.91563 33.290627 123.8375 33.853127L123.22813 35.49375Q122.5875 35.103127 121.94688 35.103127Q121.36875 35.103127 120.9 35.4625Q120.44688 35.80625 120.24375 36.415627Q119.9625 37.353127 119.9625 38.4625L119.9625 43.9L118.19688 43.9ZM125.22813 43.9L125.22813 29.587502L126.99375 29.587502L126.99375 37.74375L131.15 33.525L133.41562 33.525L129.4625 37.36875L133.82187 43.9L131.65 43.9L128.22812 38.603127L126.99375 39.790627L126.99375 43.9L125.22813 43.9ZM135.22812 31.603127L135.22812 29.587502L136.99374 29.587502L136.99374 31.603127L135.22812 31.603127ZM135.22812 43.9L135.22812 33.525L136.99374 33.525L136.99374 43.9L135.22812 43.9ZM139.2125 43.9L139.2125 33.525L140.80624 33.525L140.80624 35.009377Q141.94687 33.290627 144.10312 33.290627Q145.04062 33.290627 145.82187 33.634377Q146.61874 33.9625 147.00937 34.509377Q147.4 35.05625 147.55624 35.80625Q147.65 36.30625 147.65 37.525L147.65 43.9L145.88437 43.9L145.88437 37.5875Q145.88437 36.509377 145.68124 35.978127Q145.47812 35.446877 144.94687 35.134377Q144.43124 34.821877 143.72812 34.821877Q142.60312 34.821877 141.79062 35.540627Q140.97812 36.24375 140.97812 38.228127L140.97812 43.9L139.2125 43.9ZM149.9 44.759377L151.60312 45.009377Q151.7125 45.80625 152.19687 46.165627Q152.85312 46.65 153.99374 46.65Q155.2125 46.65 155.86874 46.165627Q156.54062 45.68125 156.775 44.80625Q156.91562 44.259377 156.9 42.540627Q155.74374 43.9 154.025 43.9Q151.88437 43.9 150.7125 42.353127Q149.54062 40.80625 149.54062 38.65Q149.54062 37.165627 150.07187 35.915627Q150.61874 34.665627 151.63437 33.978127Q152.66562 33.290627 154.04062 33.290627Q155.86874 33.290627 157.07187 34.775L157.07187 33.525L158.68124 33.525L158.68124 42.49375Q158.68124 44.915627 158.18124 45.915627Q157.69687 46.93125 156.61874 47.509377Q155.55624 48.103127 153.99374 48.103127Q152.15 48.103127 150.99374 47.275Q149.85312 46.446877 149.9 44.759377ZM151.35312 38.525Q151.35312 40.571877 152.16562 41.509377Q152.97812 42.446877 154.19687 42.446877Q155.4 42.446877 156.2125 41.509377Q157.04062 40.571877 157.04062 38.5875Q157.04062 36.68125 156.19687 35.7125Q155.35312 34.74375 154.16562 34.74375Q152.99374 34.74375 152.16562 35.696877Q151.35312 36.65 151.35312 38.525ZM166.57187 38.7125Q166.57187 35.8375 168.16562 34.446877Q169.50937 33.290627 171.43124 33.290627Q173.57187 33.290627 174.91562 34.696877Q176.275 36.103127 176.275 38.571877Q176.275 40.571877 175.68124 41.728127Q175.0875 42.86875 173.93124 43.509377Q172.79062 44.134377 171.43124 44.134377Q169.24374 44.134377 167.9 42.74375Q166.57187 41.3375 166.57187 38.7125ZM168.36874 38.7125Q168.36874 40.7125 169.22812 41.696877Q170.10312 42.68125 171.43124 42.68125Q172.74374 42.68125 173.60312 41.696877Q174.47812 40.696877 174.47812 38.65Q174.47812 36.728127 173.60312 35.74375Q172.72812 34.74375 171.43124 34.74375Q170.10312 34.74375 169.22812 35.74375Q168.36874 36.728127 168.36874 38.7125ZM178.2125 43.9L178.2125 33.525L179.80624 33.525L179.80624 35.009377Q180.94687 33.290627 183.10312 33.290627Q184.04062 33.290627 184.82187 33.634377Q185.61874 33.9625 186.00937 34.509377Q186.4 35.05625 186.55624 35.80625Q186.65 36.30625 186.65 37.525L186.65 43.9L184.88437 43.9L184.88437 37.5875Q184.88437 36.509377 184.68124 35.978127Q184.47812 35.446877 183.94687 35.134377Q183.43124 34.821877 182.72812 34.821877Q181.60312 34.821877 180.79062 35.540627Q179.97812 36.24375 179.97812 38.228127L179.97812 43.9L178.2125 43.9ZM201.99374 42.61875Q201.00937 43.446877 200.10312 43.790627Q199.19687 44.134377 198.16562 44.134377Q196.4625 44.134377 195.54062 43.30625Q194.61874 42.4625 194.61874 41.165627Q194.61874 40.4 194.9625 39.775Q195.32187 39.15 195.88437 38.775Q196.44687 38.384377 197.15 38.18125Q197.66562 38.05625 198.7125 37.915627Q200.8375 37.665627 201.8375 37.321877Q201.85312 36.9625 201.85312 36.853127Q201.85312 35.790627 201.35312 35.3375Q200.68124 34.74375 199.35312 34.74375Q198.10312 34.74375 197.50937 35.18125Q196.93124 35.61875 196.65 36.728127L194.93124 36.49375Q195.16562 35.384377 195.69687 34.7125Q196.22812 34.025 197.24374 33.665627Q198.25937 33.290627 199.60312 33.290627Q200.93124 33.290627 201.75937 33.603127Q202.5875 33.915627 202.97812 34.4Q203.36874 34.86875 203.525 35.5875Q203.61874 36.040627 203.61874 37.2125L203.61874 39.55625Q203.61874 42.009377 203.72812 42.665627Q203.8375 43.30625 204.18124 43.9L202.3375 43.9Q202.07187 43.353127 201.99374 42.61875ZM201.8375 38.696877Q200.88437 39.0875 198.9625 39.353127Q197.88437 39.509377 197.43124 39.7125Q196.99374 39.9 196.74374 40.275Q196.49374 40.65 196.49374 41.11875Q196.49374 41.821877 197.025 42.290627Q197.55624 42.759377 198.5875 42.759377Q199.60312 42.759377 200.38437 42.321877Q201.18124 41.86875 201.55624 41.103127Q201.8375 40.49375 201.8375 39.3375L201.8375 38.696877ZM211.9 44.759377L213.60312 45.009377Q213.7125 45.80625 214.19687 46.165627Q214.85312 46.65 215.99374 46.65Q217.2125 46.65 217.86874 46.165627Q218.54062 45.68125 218.775 44.80625Q218.91562 44.259377 218.9 42.540627Q217.74374 43.9 216.025 43.9Q213.88437 43.9 212.7125 42.353127Q211.54062 40.80625 211.54062 38.65Q211.54062 37.165627 212.07187 35.915627Q212.61874 34.665627 213.63437 33.978127Q214.66562 33.290627 216.04062 33.290627Q217.86874 33.290627 219.07187 34.775L219.07187 33.525L220.68124 33.525L220.68124 42.49375Q220.68124 44.915627 220.18124 45.915627Q219.69687 46.93125 218.61874 47.509377Q217.55624 48.103127 215.99374 48.103127Q214.15 48.103127 212.99374 47.275Q211.85312 46.446877 211.9 44.759377ZM213.35312 38.525Q213.35312 40.571877 214.16562 41.509377Q214.97812 42.446877 216.19687 42.446877Q217.4 42.446877 218.2125 41.509377Q219.04062 40.571877 219.04062 38.5875Q219.04062 36.68125 218.19687 35.7125Q217.35312 34.74375 216.16562 34.74375Q214.99374 34.74375 214.16562 35.696877Q213.35312 36.65 213.35312 38.525ZM223.22812 31.603127L223.22812 29.587502L224.99374 29.587502L224.99374 31.603127L223.22812 31.603127ZM223.22812 43.9L223.22812 33.525L224.99374 33.525L224.99374 43.9L223.22812 43.9ZM230.10312 43.9L226.15 33.525L228.00937 33.525L230.24374 39.74375Q230.60312 40.74375 230.9 41.821877Q231.13437 41.009377 231.55624 39.853127L233.85312 33.525L235.66562 33.525L231.74374 43.9L230.10312 43.9ZM244.32187 40.55625L246.13437 40.790627Q245.7125 42.36875 244.54062 43.259377Q243.38437 44.134377 241.57187 44.134377Q239.30624 44.134377 237.9625 42.74375Q236.63437 41.3375 236.63437 38.80625Q236.63437 36.18125 237.97812 34.74375Q239.32187 33.290627 241.47812 33.290627Q243.55624 33.290627 244.86874 34.7125Q246.19687 36.11875 246.19687 38.696877Q246.19687 38.853127 246.18124 39.165627L238.44687 39.165627Q238.54062 40.86875 239.41562 41.775Q240.29062 42.68125 241.5875 42.68125Q242.55624 42.68125 243.22812 42.18125Q243.91562 41.665627 244.32187 40.55625ZM238.54062 37.7125L244.3375 37.7125Q244.22812 36.415627 243.68124 35.759377Q242.8375 34.74375 241.49374 34.74375Q240.29062 34.74375 239.4625 35.55625Q238.63437 36.353127 238.54062 37.7125ZM248.2125 43.9L248.2125 33.525L249.80624 33.525L249.80624 35.009377Q250.94687 33.290627 253.10312 33.290627Q254.04062 33.290627 254.82187 33.634377Q255.61874 33.9625 256.00937 34.509377Q256.4 35.05625 256.55624 35.80625Q256.65 36.30625 256.65 37.525L256.65 43.9L254.88437 43.9L254.88437 37.5875Q254.88437 36.509377 254.68124 35.978127Q254.47812 35.446877 253.94687 35.134377Q253.43124 34.821877 252.72812 34.821877Q251.60312 34.821877 250.79062 35.540627Q249.97812 36.24375 249.97812 38.228127L249.97812 43.9L248.2125 43.9ZM269.05624 42.321877L269.30624 43.884377Q268.57187 44.040627 267.97812 44.040627Q267.025 44.040627 266.49374 43.74375Q265.97812 43.43125 265.75937 42.946877Q265.54062 42.446877 265.54062 40.86875L265.54062 34.9L264.25937 34.9L264.25937 33.525L265.54062 33.525L265.54062 30.962502L267.29062 29.900002L267.29062 33.525L269.05624 33.525L269.05624 34.9L267.29062 34.9L267.29062 40.9625Q267.29062 41.7125 267.38437 41.93125Q267.47812 42.134377 267.68124 42.275Q267.9 42.4 268.29062 42.4Q268.57187 42.4 269.05624 42.321877ZM271.19687 43.9L271.19687 33.525L272.775 33.525L272.775 35.103127Q273.38437 33.99375 273.9 33.65Q274.41562 33.290627 275.025 33.290627Q275.91562 33.290627 276.8375 33.853127L276.22812 35.49375Q275.5875 35.103127 274.94687 35.103127Q274.36874 35.103127 273.9 35.4625Q273.44687 35.80625 273.24374 36.415627Q272.9625 37.353127 272.9625 38.4625L272.9625 43.9L271.19687 43.9ZM284.99374 42.61875Q284.00937 43.446877 283.10312 43.790627Q282.19687 44.134377 281.16562 44.134377Q279.4625 44.134377 278.54062 43.30625Q277.61874 42.4625 277.61874 41.165627Q277.61874 40.4 277.9625 39.775Q278.32187 39.15 278.88437 38.775Q279.44687 38.384377 280.15 38.18125Q280.66562 38.05625 281.7125 37.915627Q283.8375 37.665627 284.8375 37.321877Q284.85312 36.9625 284.85312 36.853127Q284.85312 35.790627 284.35312 35.3375Q283.68124 34.74375 282.35312 34.74375Q281.10312 34.74375 280.50937 35.18125Q279.93124 35.61875 279.65 36.728127L277.93124 36.49375Q278.16562 35.384377 278.69687 34.7125Q279.22812 34.025 280.24374 33.665627Q281.25937 33.290627 282.60312 33.290627Q283.93124 33.290627 284.75937 33.603127Q285.5875 33.915627 285.97812 34.4Q286.36874 34.86875 286.525 35.5875Q286.61874 36.040627 286.61874 37.2125L286.61874 39.55625Q286.61874 42.009377 286.72812 42.665627Q286.8375 43.30625 287.18124 43.9L285.3375 43.9Q285.07187 43.353127 284.99374 42.61875ZM284.8375 38.696877Q283.88437 39.0875 281.9625 39.353127Q280.88437 39.509377 280.43124 39.7125Q279.99374 39.9 279.74374 40.275Q279.49374 40.65 279.49374 41.11875Q279.49374 41.821877 280.025 42.290627Q280.55624 42.759377 281.5875 42.759377Q282.60312 42.759377 283.38437 42.321877Q284.18124 41.86875 284.55624 41.103127Q284.8375 40.49375 284.8375 39.3375L284.8375 38.696877ZM289.2125 43.9L289.2125 33.525L290.80624 33.525L290.80624 35.009377Q291.94687 33.290627 294.10312 33.290627Q295.04062 33.290627 295.82187 33.634377Q296.61874 33.9625 297.00937 34.509377Q297.4 35.05625 297.55624 35.80625Q297.65 36.30625 297.65 37.525L297.65 43.9L295.88437 43.9L295.88437 37.5875Q295.88437 36.509377 295.68124 35.978127Q295.47812 35.446877 294.94687 35.134377Q294.43124 34.821877 293.72812 34.821877Q292.60312 34.821877 291.79062 35.540627Q290.97812 36.24375 290.97812 38.228127L290.97812 43.9L289.2125 43.9ZM299.50937 40.80625L301.25937 40.525Q301.4 41.571877 302.07187 42.134377Q302.74374 42.68125 303.94687 42.68125Q305.15 42.68125 305.72812 42.196877Q306.32187 41.696877 306.32187 41.040627Q306.32187 40.446877 305.80624 40.103127Q305.44687 39.86875 304.00937 39.509377Q302.07187 39.009377 301.32187 38.665627Q300.5875 38.30625 300.19687 37.68125Q299.80624 37.040627 299.80624 36.275Q299.80624 35.5875 300.11874 34.99375Q300.44687 34.4 300.99374 34.009377Q301.4 33.7125 302.10312 33.509377Q302.82187 33.290627 303.63437 33.290627Q304.85312 33.290627 305.775 33.65Q306.69687 33.99375 307.13437 34.603127Q307.57187 35.196877 307.74374 36.196877L306.025 36.43125Q305.9 35.634377 305.3375 35.196877Q304.775 34.74375 303.75937 34.74375Q302.54062 34.74375 302.025 35.15Q301.50937 35.540627 301.50937 36.071877Q301.50937 36.415627 301.72812 36.696877Q301.93124 36.978127 302.4 37.165627Q302.66562 37.259377 303.94687 37.603127Q305.82187 38.103127 306.55624 38.43125Q307.29062 38.74375 307.7125 39.353127Q308.13437 39.946877 308.13437 40.853127Q308.13437 41.728127 307.61874 42.509377Q307.10312 43.290627 306.13437 43.7125Q305.16562 44.134377 303.94687 44.134377Q301.93124 44.134377 300.86874 43.290627Q299.80624 42.446877 299.50937 40.80625ZM310.18124 43.9L310.18124 29.587502L311.93124 29.587502L311.93124 43.9L310.18124 43.9ZM320.99374 42.61875Q320.00937 43.446877 319.10312 43.790627Q318.19687 44.134377 317.16562 44.134377Q315.4625 44.134377 314.54062 43.30625Q313.61874 42.4625 313.61874 41.165627Q313.61874 40.4 313.9625 39.775Q314.32187 39.15 314.88437 38.775Q315.44687 38.384377 316.15 38.18125Q316.66562 38.05625 317.7125 37.915627Q319.8375 37.665627 320.8375 37.321877Q320.85312 36.9625 320.85312 36.853127Q320.85312 35.790627 320.35312 35.3375Q319.68124 34.74375 318.35312 34.74375Q317.10312 34.74375 316.50937 35.18125Q315.93124 35.61875 315.65 36.728127L313.93124 36.49375Q314.16562 35.384377 314.69687 34.7125Q315.22812 34.025 316.24374 33.665627Q317.25937 33.290627 318.60312 33.290627Q319.93124 33.290627 320.75937 33.603127Q321.5875 33.915627 321.97812 34.4Q322.36874 34.86875 322.525 35.5875Q322.61874 36.040627 322.61874 37.2125L322.61874 39.55625Q322.61874 42.009377 322.72812 42.665627Q322.8375 43.30625 323.18124 43.9L321.3375 43.9Q321.07187 43.353127 320.99374 42.61875ZM320.8375 38.696877Q319.88437 39.0875 317.9625 39.353127Q316.88437 39.509377 316.43124 39.7125Q315.99374 39.9 315.74374 40.275Q315.49374 40.65 315.49374 41.11875Q315.49374 41.821877 316.025 42.290627Q316.55624 42.759377 317.5875 42.759377Q318.60312 42.759377 319.38437 42.321877Q320.18124 41.86875 320.55624 41.103127Q320.8375 40.49375 320.8375 39.3375L320.8375 38.696877ZM329.05624 42.321877L329.30624 43.884377Q328.57187 44.040627 327.97812 44.040627Q327.025 44.040627 326.49374 43.74375Q325.97812 43.43125 325.75937 42.946877Q325.54062 42.446877 325.54062 40.86875L325.54062 34.9L324.25937 34.9L324.25937 33.525L325.54062 33.525L325.54062 30.962502L327.29062 29.900002L327.29062 33.525L329.05624 33.525L329.05624 34.9L327.29062 34.9L327.29062 40.9625Q327.29062 41.7125 327.38437 41.93125Q327.47812 42.134377 327.68124 42.275Q327.9 42.4 328.29062 42.4Q328.57187 42.4 329.05624 42.321877ZM331.22812 31.603127L331.22812 29.587502L332.99374 29.587502L332.99374 31.603127L331.22812 31.603127ZM331.22812 43.9L331.22812 33.525L332.99374 33.525L332.99374 43.9L331.22812 43.9ZM334.57187 38.7125Q334.57187 35.8375 336.16562 34.446877Q337.50937 33.290627 339.43124 33.290627Q341.57187 33.290627 342.91562 34.696877Q344.275 36.103127 344.275 38.571877Q344.275 40.571877 343.68124 41.728127Q343.0875 42.86875 341.93124 43.509377Q340.79062 44.134377 339.43124 44.134377Q337.24374 44.134377 335.9 42.74375Q334.57187 41.3375 334.57187 38.7125ZM336.36874 38.7125Q336.36874 40.7125 337.22812 41.696877Q338.10312 42.68125 339.43124 42.68125Q340.74374 42.68125 341.60312 41.696877Q342.47812 40.696877 342.47812 38.65Q342.47812 36.728127 341.60312 35.74375Q340.72812 34.74375 339.43124 34.74375Q338.10312 34.74375 337.22812 35.74375Q336.36874 36.728127 336.36874 38.7125ZM346.2125 43.9L346.2125 33.525L347.80624 33.525L347.80624 35.009377Q348.94687 33.290627 351.10312 33.290627Q352.04062 33.290627 352.82187 33.634377Q353.61874 33.9625 354.00937 34.509377Q354.4 35.05625 354.55624 35.80625Q354.65 36.30625 354.65 37.525L354.65 43.9L352.88437 43.9L352.88437 37.5875Q352.88437 36.509377 352.68124 35.978127Q352.47812 35.446877 351.94687 35.134377Q351.43124 34.821877 350.72812 34.821877Q349.60312 34.821877 348.79062 35.540627Q347.97812 36.24375 347.97812 38.228127L347.97812 43.9L346.2125 43.9Z" fill-rule="nonzero"/></svg>